# File produced by Open Asset Import Library (http://www.assimp.sf.net)
# (assimp v3.1.71981620)

mtllib roche2.mtl

# 68 vertex positions
v  -2.49408 5.26883 0.884463
v  -1.4082 11.5159 0.565289
v  -1.87004 11.4519 0.030756
v  -2.98112 5.23284 0.371184
v  0.193866 11.946 0.185387
v  -1.33078 11.9238 0.01573
v  0.201271 11.5125 0.741675
v  -1.87155 11.0235 -2.03161
v  -1.33944 11.4817 -2.05528
v  0.978384 5.26824 1.09071
v  0.902 11.5128 0.73559
v  0.277438 5.26932 1.09443
v  2.11741 11.9238 0.023713
v  0.89702 11.9459 0.178532
v  2.19988 11.5167 0.572821
v  0.193574 11.4587 -2.36735
v  0.897245 11.4591 -2.35522
v  -2.97654 5.01368 -3.15359
v  -1.42772 10.9497 -2.57818
v  -2.51467 4.97781 -3.6864
v  0.199638 10.9628 -2.87427
v  2.23952 10.9767 -2.57912
v  0.89979 10.9636 -2.8644
v  2.15869 11.475 -2.09062
v  0.276916 4.98061 -4.03718
v  0.978868 4.98042 -4.03089
v  -3.08154 4.5402 0.421694
v  -3.58462 0.147461 0.823626
v  -3.10395 0.148399 1.33521
v  -2.60285 4.56906 0.934878
v  -3.08418 4.31245 -3.25076
v  0.284554 4.56712 1.14558
v  3.39278 4.56908 0.93994
v  3.8935 0.148399 1.33964
v  4.37169 0.14746 0.825734
v  3.86862 4.54013 0.423858
v  0.986498 4.56715 1.14171
v  3.28419 5.26875 0.889597
v  3.76362 5.0134 -3.15722
v  3.76819 5.23301 0.373618
v  3.87125 4.31218 -3.25433
v  2.65685 11.4537 0.032132
v  2.65934 11.0205 -2.02842
v  3.30667 4.97756 -3.69428
v  0.284487 4.27941 -4.12568
v  -2.62089 4.28321 -3.77415
v  -3.58471 0.140065 -3.50772
v  -3.1141 0.139114 -4.02892
v  3.41267 4.28321 -3.78201
v  0.984064 4.28181 -4.11952
v  3.90533 0.139115 -4.03589
v  4.37177 0.140055 -3.51099
v  1.02157 0.148337 1.5506
v  0.319626 0.148335 1.55395
v  0.319435 0.138992 -4.39301
v  1.02129 0.139069 -4.38751
v  0.320803 0 1.56766
v  -3.12077 0 1.34865
v  1.02275 0 1.56433
v  3.9103 0 1.35306
v  4.38858 0 0.839224
v  4.38858 0 -3.5196
v  3.92187 0 -4.04441
v  1.02254 0 -4.39651
v  0.320608 0 -4.40198
v  -3.13066 0 -4.03747
v  -3.60151 0 -3.51634
v  -3.60151 0 0.837119

# 101 UV coordinates
vt 0.988281 0.249913 0
vt 0.988281 0.536119 0
vt 0.956334 0.536119 0
vt 0.956334 0.249913 0
vt 0.130864 0.667681 0
vt 0.203835 0.667681 0
vt 0.203835 0.698506 0
vt 0.130864 0.698506 0
vt 0.230881 0.560628 0
vt 0.230881 0.667681 0
vt 0.203835 0.560628 0
vt 0.510982 0.255227 0
vt 0.510982 0.543142 0
vt 0.478705 0.543142 0
vt 0.478705 0.255227 0
vt 0.038738 0.667681 0
vt 0.097954 0.667681 0
vt 0.097954 0.698506 0
vt 0.038738 0.698506 0
vt 0.130864 0.560629 0
vt 0.097954 0.560629 0
vt 0.305268 0.247843 0
vt 0.305268 0.51909 0
vt 0.290271 0.51909 0
vt 0.290271 0.238109 0
vt 0.130864 0.528964 0
vt 0.203835 0.528964 0
vt 0.038738 0.528964 0
vt 0.097954 0.528965 0
vt 0.038738 0.560629 0
vt 0.173208 0.238109 0
vt 0.173208 0.51909 0
vt 0.141131 0.51909 0
vt 0.141131 0.238109 0
vt 0.956334 0.217142 0
vt 0.956334 0.018391 0
vt 0.988281 0.018391 0
vt 0.988281 0.217142 0
vt 0.808858 0.217142 0
vt 0.808858 0.249913 0
vt 0.362074 0.255227 0
vt 0.362074 0.222899 0
vt 0.478705 0.222899 0
vt 0.619216 0.218437 0
vt 0.619216 0.018433 0
vt 0.651571 0.018433 0
vt 0.651571 0.218437 0
vt 0.510982 0.222899 0
vt 0.607721 0.222899 0
vt 0.607721 0.255227 0
vt 0.798718 0.251145 0
vt 0.651571 0.251145 0
vt 0.798718 0.218437 0
vt 0.619216 0.536406 0
vt 0.619216 0.251145 0
vt 0.651571 0.536406 0
vt 0.011719 0.667681 0
vt 0.011719 0.560628 0
vt 0.042976 0.238109 0
vt 0.042976 0.51909 0
vt 0.011719 0.51909 0
vt 0.011719 0.238109 0
vt 0.173208 0.207705 0
vt 0.290271 0.207705 0
vt 0.349525 0.018084 0
vt 0.349525 0.207705 0
vt 0.290271 0.018084 0
vt 0.042976 0.207705 0
vt 0.141131 0.207705 0
vt 0.042976 0.018084 0
vt 0.011719 0.207705 0
vt 0.011719 0.018084 0
vt 0.510982 0.018578 0
vt 0.478705 0.018578 0
vt 0.173208 0.018084 0
vt 0.141131 0.018084 0
vt 0.607721 0.543142 0
vt 0.798718 0.536406 0
vt 0.808858 0.536119 0
vt 0.607721 0.018578 0
vt 0.798718 0.018433 0
vt 0.808858 0.018391 0
vt 0.362074 0.543142 0
vt 0.362074 0.018578 0
vt 0.349525 0.244897 0
vt 0.478705 0.011719 0
vt 0.362074 0.011719 0
vt 0.510982 0.011719 0
vt 0.607721 0.011719 0
vt 0.619216 0.011719 0
vt 0.651571 0.011719 0
vt 0.798718 0.011719 0
vt 0.042976 0.011719 0
vt 0.011719 0.011719 0
vt 0.141131 0.011719 0
vt 0.173208 0.011719 0
vt 0.290271 0.011719 0
vt 0.349525 0.011719 0
vt 0.956334 0.011719 0
vt 0.808858 0.011719 0
vt 0.988281 0.011719 0

# 68 vertex normals
vn -0.275026 0.095395 0.956693
vn -0.232135 0.13273 0.963585
vn -0.963552 0.234621 0.128536
vn -0.977207 0.180638 0.111518
vn -0.017034 0.999855 -0.000102
vn -0.185095 0.981871 -0.040857
vn -0.065344 0.119183 0.99072
vn -0.964494 0.231264 -0.127551
vn -0.200994 0.933855 -0.295832
vn 0.073563 0.063081 0.995294
vn 0.074341 0.121107 0.989852
vn -0.063758 0.061723 0.996055
vn 0.214114 0.975716 -0.046197
vn 0.019611 0.999802 -0.003247
vn 0.26828 0.137105 0.953534
vn -0.029414 0.94051 -0.338491
vn 0.030868 0.942415 -0.333019
vn -0.966145 0.198618 -0.164668
vn -0.291343 0.252915 -0.92258
vn -0.296404 0.210422 -0.931594
vn -0.10673 0.239526 -0.965006
vn 0.332075 0.25638 -0.907742
vn 0.121597 0.240734 -0.962944
vn 0.231674 0.929006 -0.288575
vn -0.104201 0.187495 -0.976723
vn 0.12051 0.189821 -0.974395
vn -0.986082 0.128798 0.105132
vn -0.986159 0.125247 0.10864
vn -0.202592 0.108581 0.973225
vn -0.190196 0.106072 0.975999
vn -0.986926 0.126368 -0.10004
vn -0.054968 0.091856 0.994254
vn 0.219012 0.108985 0.969617
vn 0.232457 0.111411 0.966205
vn 0.986253 0.125174 0.107874
vn 0.986181 0.12872 0.104295
vn 0.062935 0.092634 0.993709
vn 0.314216 0.101689 0.94389
vn 0.967176 0.19766 -0.15969
vn 0.977347 0.180547 0.110438
vn 0.987052 0.126286 -0.098896
vn 0.963947 0.23362 0.127391
vn 0.965112 0.230312 -0.124561
vn 0.337121 0.2153 -0.916513
vn -0.091254 0.076421 -0.992891
vn -0.232082 0.090569 -0.968471
vn -0.987097 0.122093 -0.103598
vn -0.243123 0.083741 -0.966374
vn 0.265442 0.09425 -0.959509
vn 0.104319 0.077926 -0.991486
vn 0.277261 0.087357 -0.956815
vn 0.987222 0.122021 -0.102491
vn 0.062375 0.094816 0.993539
vn -0.054156 0.09404 0.994094
vn -0.089958 0.067981 -0.993623
vn 0.103476 0.069348 -0.992212
vn -0.0517 0.093905 0.994238
vn -0.19022 0.107582 0.975829
vn 0.059561 0.094656 0.993727
vn 0.218299 0.11027 0.969632
vn 0.9867 0.124737 0.104231
vn 0.988121 0.121772 -0.093751
vn 0.262452 0.086131 -0.961093
vn 0.098829 0.069071 -0.992704
vn -0.085829 0.067749 -0.994004
vn -0.229923 0.082673 -0.969691
vn -0.988022 0.121836 -0.094702
vn -0.986622 0.1248 0.104887

# Mesh 'g pCube1_pCube1' with 122 faces
g g pCube1_pCube1
usemtl initialShadingGroup
f  1/1/1 2/2/2 3/3/3
f  3/3/3 4/4/4 1/1/1
f  5/5/5 6/6/6 2/7/2
f  2/7/2 7/8/7 5/5/5
f  8/9/8 3/10/3 6/6/6
f  6/6/6 9/11/9 8/9/8
f  10/12/10 11/13/11 7/14/7
f  7/14/7 12/15/12 10/12/10
f  13/16/13 14/17/14 11/18/11
f  11/18/11 15/19/15 13/16/13
f  16/20/16 5/5/5 14/17/14
f  14/17/14 17/21/17 16/20/16
f  18/22/18 8/23/8 19/24/19
f  19/24/19 20/25/20 18/22/18
f  21/26/21 19/27/19 9/11/9
f  9/11/9 16/20/16 21/26/21
f  22/28/22 23/29/23 17/21/17
f  17/21/17 24/30/24 22/28/22
f  25/31/25 21/32/21 23/33/23
f  23/33/23 26/34/26 25/31/25
f  27/35/27 28/36/28 29/37/29
f  29/37/29 30/38/30 27/35/27
f  31/39/31 27/35/27 4/4/4
f  4/4/4 18/40/18 31/39/31
f  12/15/12 1/41/1 30/42/30
f  30/42/30 32/43/32 12/15/12
f  33/44/33 34/45/34 35/46/35
f  35/46/35 36/47/36 33/44/33
f  37/48/37 33/49/33 38/50/38
f  38/50/38 10/12/10 37/48/37
f  39/51/39 40/52/40 36/47/36
f  36/47/36 41/53/41 39/51/39
f  15/54/15 38/55/38 40/52/40
f  40/52/40 42/56/42 15/54/15
f  24/30/24 13/16/13 42/57/42
f  42/57/42 43/58/43 24/30/24
f  44/59/44 22/60/22 43/61/43
f  43/61/43 39/62/39 44/59/44
f  45/63/45 46/64/46 20/25/20
f  20/25/20 25/31/25 45/63/45
f  47/65/47 31/66/31 46/64/46
f  46/64/46 48/67/48 47/65/47
f  26/34/26 44/59/44 49/68/49
f  49/68/49 50/69/50 26/34/26
f  51/70/51 49/68/49 41/71/41
f  41/71/41 52/72/52 51/70/51
f  53/73/53 37/48/37 32/43/32
f  32/43/32 54/74/54 53/73/53
f  55/75/55 45/63/45 50/69/50
f  50/69/50 56/76/56 55/75/55
f  15/77/15 11/13/11 10/12/10
f  10/12/10 38/50/38 15/77/15
f  24/30/24 17/21/17 14/17/14
f  14/17/14 13/16/13 24/30/24
f  44/59/44 26/34/26 23/33/23
f  23/33/23 22/60/22 44/59/44
f  42/56/42 40/52/40 39/51/39
f  39/51/39 43/78/43 42/56/42
f  8/79/8 18/40/18 4/4/4
f  4/4/4 3/3/3 8/79/8
f  33/49/33 37/48/37 53/73/53
f  53/73/53 34/80/34 33/49/33
f  41/53/41 36/47/36 35/46/35
f  35/46/35 52/81/52 41/53/41
f  49/68/49 51/70/51 56/76/56
f  56/76/56 50/69/50 49/68/49
f  27/35/27 31/39/31 47/82/47
f  47/82/47 28/36/28 27/35/27
f  48/67/48 46/64/46 45/63/45
f  45/63/45 55/75/55 48/67/48
f  20/25/20 19/24/19 21/32/21
f  21/32/21 25/31/25 20/25/20
f  9/11/9 6/6/6 5/5/5
f  5/5/5 16/20/16 9/11/9
f  2/83/2 1/41/1 12/15/12
f  12/15/12 7/14/7 2/83/2
f  32/43/32 30/42/30 29/84/29
f  29/84/29 54/74/54 32/43/32
f  2/7/2 6/6/6 3/10/3
f  7/8/7 11/18/11 14/17/14
f  14/17/14 5/5/5 7/8/7
f  8/9/8 9/11/9 19/27/19
f  16/20/16 17/21/17 23/29/23
f  23/29/23 21/26/21 16/20/16
f  4/4/4 27/35/27 30/38/30
f  30/38/30 1/1/1 4/4/4
f  38/55/38 33/44/33 36/47/36
f  36/47/36 40/52/40 38/55/38
f  15/19/15 42/57/42 13/16/13
f  24/30/24 43/58/43 22/28/22
f  20/25/20 46/64/46 31/66/31
f  31/66/31 18/85/18 20/25/20
f  49/68/49 44/59/44 39/62/39
f  39/62/39 41/71/41 49/68/49
f  32/43/32 37/48/37 10/12/10
f  10/12/10 12/15/12 32/43/32
f  25/31/25 26/34/26 50/69/50
f  50/69/50 45/63/45 25/31/25
f  57/86/57 54/74/54 29/84/29
f  29/84/29 58/87/58 57/86/57
f  59/88/59 53/73/53 54/74/54
f  54/74/54 57/86/57 59/88/59
f  60/89/60 34/80/34 53/73/53
f  53/73/53 59/88/59 60/89/60
f  34/45/34 60/90/60 61/91/61
f  61/91/61 35/46/35 34/45/34
f  62/92/62 52/81/52 35/46/35
f  35/46/35 61/91/61 62/92/62
f  63/93/63 51/70/51 52/72/52
f  52/72/52 62/94/62 63/93/63
f  63/93/63 64/95/64 56/76/56
f  56/76/56 51/70/51 63/93/63
f  65/96/65 55/75/55 56/76/56
f  56/76/56 64/95/64 65/96/65
f  66/97/66 48/67/48 55/75/55
f  55/75/55 65/96/65 66/97/66
f  67/98/67 47/65/47 48/67/48
f  48/67/48 66/97/66 67/98/67
f  68/99/68 28/36/28 47/82/47
f  47/82/47 67/100/67 68/99/68
f  28/36/28 68/99/68 58/101/58
f  58/101/58 29/37/29 28/36/28

