# File produced by Open Asset Import Library (http://www.assimp.sf.net)
# (assimp v3.1.71981620)

mtllib roche3.mtl

# 60 vertex positions
v  -6.96016 1.94187 2.94467
v  -7.50743 0 3.36507
v  -3.38757 0 5.49223
v  -3.34379 1.94187 4.75479
v  -7.50743 0 -6.6063
v  -6.96016 1.94187 -6.17364
v  -3.34379 1.94187 -7.98149
v  -3.38757 0 -8.73345
v  5.86229 1.38024 3.42759
v  6.61572 0 4.37845
v  7.70541 0.153888 -1.841
v  6.83573 1.12914 -1.79972
v  -7.9654 1.87488 -1.78197
v  -8.59713 -0.281374 -1.80377
v  6.61572 0 -7.61968
v  5.76951 0 -7.88311
v  4.90827 1.49922 -7.06432
v  5.78477 1.44815 -6.98104
v  5.55339 1.43131 3.49095
v  6.32332 0 4.37845
v  3.40051 0 -7.61968
v  -0.737302 -0.548064 -8.0406
v  -1.07565 1.81985 -7.60713
v  2.46555 1.94187 -7.57242
v  3.40051 0 4.37845
v  2.46555 1.94187 4.12429
v  -1.07565 1.81985 4.28745
v  -0.737302 -0.548064 4.79938
v  -2.96191 4.3362 3.16191
v  -5.39689 4.35961 1.92783
v  -5.81152 4.02471 2.2196
v  -2.98725 4.00719 3.64466
v  -6.61026 4.7015 -1.7605
v  -6.13622 4.99601 -1.76357
v  -1.29072 4.73979 2.93601
v  -1.26031 4.37693 3.36829
v  -5.39723 4.36572 -5.1673
v  -5.81124 4.02522 -5.45926
v  -2.98707 4.00826 -6.88355
v  -2.9633 4.33875 -6.40861
v  -1.25997 4.37211 -6.75978
v  -1.29136 4.74405 -6.33343
v  4.29283 3.18567 2.38972
v  4.4843 3.04956 2.04684
v  4.19386 3.47859 1.79047
v  4.17446 3.46701 1.901
v  4.93889 3.81998 -1.77364
v  5.38445 3.484 -1.76232
v  4.70919 2.98242 -5.15453
v  5.07047 2.46845 -5.62743
v  1.44725 3.99873 3.42235
v  1.31929 4.33804 2.97759
v  1.32135 4.34342 -6.58155
v  1.45285 3.98742 -7.0216
v  4.29579 3.18155 -5.66441
v  4.17924 3.46987 -5.17477
v  -3.32258 4.99601 -1.80841
v  4.81982 3.85339 -1.77999
v  1.57152 4.99601 -1.99717
v  -1.41178 5.54408 -1.88127

# 73 UV coordinates
vt 0.375 0.137524 0
vt 0.375 0 0
vt 0.446277 0 0
vt 0.446277 0.137524 0
vt 0.375 0.75 0
vt 0.375 0.612476 0
vt 0.446277 0.612476 0
vt 0.446277 0.75 0
vt 0.625 0.137524 0
vt 0.625 0 0
vt 0.754592 0 0
vt 0.754592 0.137524 0
vt 0.245408 0.137524 0
vt 0.245408 0 0
vt 0.625 0.75 0
vt 0.618829 0.75 0
vt 0.618829 0.612476 0
vt 0.625 0.612476 0
vt 0.618829 0.137524 0
vt 0.618829 0 0
vt 0.557141 0.75 0
vt 0.489561 0.75 0
vt 0.489561 0.612476 0
vt 0.557141 0.612476 0
vt 0.557141 0 0
vt 0.557141 0.137524 0
vt 0.489561 0.137524 0
vt 0.489561 0 0
vt 0.125 0.137524 0
vt 0.125 0 0
vt 0.875 0.137524 0
vt 0.875 0 0
vt 0.446277 0.258055 0
vt 0.38268 0.258522 0
vt 0.375 0.25 0
vt 0.446277 0.23635 0
vt 0.375 0.378096 0
vt 0.38254 0.379592 0
vt 0.489561 0.258099 0
vt 0.489561 0.237865 0
vt 0.382735 0.491396 0
vt 0.375 0.5 0
vt 0.375 0.381501 0
vt 0.446277 0.513599 0
vt 0.375 0.512788 0
vt 0.446277 0.492079 0
vt 0.489561 0.512324 0
vt 0.489561 0.491877 0
vt 0.618829 0.236155 0
vt 0.625 0.25 0
vt 0.618829 0.264353 0
vt 0.618829 0.260784 0
vt 0.620632 0.379592 0
vt 0.625 0.379048 0
vt 0.623082 0.491109 0
vt 0.625 0.3811 0
vt 0.625 0.521128 0
vt 0.557141 0.235944 0
vt 0.557141 0.258393 0
vt 0.557141 0.49128 0
vt 0.557141 0.514597 0
vt 0.618829 0.514077 0
vt 0.618829 0.489162 0
vt 0.446277 0.379592 0
vt 0.618829 0.379592 0
vt 0.557141 0.379592 0
vt 0.489561 0.379592 0
vt 0.375 0.237188 0
vt 0.245408 0.239387 0
vt 0.625 0.238303 0
vt 0.754592 0.239007 0
vt 0.125 0.237212 0
vt 0.875 0.228872 0

# 61 vertex normals
vn -0.757036 0.415538 0.504207
vn -0.783597 0.330729 0.525923
vn -0.147289 0.323248 0.934782
vn -0.19539 0.392132 0.898919
vn -0.769123 0.334836 -0.544366
vn -0.744111 0.416933 -0.521982
vn -0.208759 0.387099 -0.898095
vn -0.155767 0.319903 -0.934558
vn 0.76964 0.612035 0.181843
vn 0.770211 0.611836 0.180086
vn 0.798158 0.602421 -0.005729
vn 0.798133 0.602382 0.010945
vn -0.920771 0.390103 0.000181
vn -0.955327 0.29555 -0.000757
vn 0.742471 0.617608 -0.259418
vn 0.118443 0.377267 -0.918499
vn 0.253263 0.483195 -0.838081
vn 0.735604 0.623049 -0.265888
vn 0.245575 0.48846 0.837317
vn 0.129892 0.408362 0.903531
vn 0.059648 0.192845 -0.979415
vn 0.116045 0.177987 -0.977167
vn 0.081075 0.254167 -0.963756
vn 0.144444 0.312974 -0.938714
vn 0.093167 0.283509 0.954433
vn 0.148378 0.362095 0.920256
vn 0.112456 0.29379 0.949232
vn 0.128853 0.225796 0.965615
vn -0.156814 0.96171 0.224774
vn -0.120586 0.97087 0.207051
vn -0.692872 0.549558 0.466813
vn -0.180259 0.513086 0.839196
vn -0.838492 0.544913 0.001321
vn -0.127924 0.991781 0.002459
vn 0.003356 0.98113 0.193319
vn 0.06814 0.457174 0.886763
vn -0.125856 0.966942 -0.221772
vn -0.680934 0.547684 -0.48618
vn -0.205503 0.505416 -0.838047
vn -0.171503 0.955992 -0.238047
vn -0.022721 0.777182 -0.628866
vn -0.004119 0.978183 -0.207704
vn 0.373454 0.621424 0.688741
vn 0.760627 0.621428 0.187815
vn 0.617057 0.757317 0.213805
vn 0.341597 0.923599 0.174002
vn 0.646356 0.761665 -0.045728
vn 0.777324 0.628525 0.02691
vn 0.635451 0.735954 -0.23361
vn 0.75091 0.622254 -0.221211
vn 0.155674 0.493302 0.855814
vn 0.241789 0.950322 0.196024
vn 0.242461 0.945483 -0.217427
vn 0.137479 0.461233 -0.876563
vn 0.423711 0.637376 -0.6436
vn 0.380602 0.905212 -0.189031
vn -0.128276 0.991738 0.001213
vn 0.359234 0.933234 -0.004976
vn 0.254049 0.967181 -0.004418
vn -0.002281 0.999996 0.001403
vn 0.024895 0.327366 -0.94457

# Mesh 'g pCube1_pCube1' with 104 faces
g g pCube1_pCube1
usemtl initialShadingGroup
f  1/1/1 2/2/2 3/3/3
f  3/3/3 4/4/4 1/1/1
f  5/5/5 6/6/6 7/7/7
f  7/7/7 8/8/8 5/5/5
f  9/9/9 10/10/10 11/11/11
f  11/11/11 12/12/12 9/9/9
f  13/13/13 14/14/14 2/2/2
f  2/2/2 1/1/1 13/13/13
f  15/15/15 16/16/16 17/17/17
f  17/17/17 18/18/18 15/15/15
f  9/9/9 19/19/19 20/20/20
f  20/20/20 10/10/10 9/9/9
f  21/21/21 22/22/22 23/23/23
f  23/23/23 24/24/24 21/21/21
f  25/25/25 26/26/26 27/27/27
f  27/27/27 28/28/28 25/25/25
f  6/29/6 5/30/5 14/14/14
f  14/14/14 13/13/13 6/29/6
f  18/31/18 12/12/12 11/11/11
f  11/11/11 15/32/15 18/31/18
f  22/22/22 8/8/8 7/7/7
f  7/7/7 23/23/23 22/22/22
f  3/3/3 28/28/28 27/27/27
f  27/27/27 4/4/4 3/3/3
f  16/16/16 21/21/21 24/24/24
f  24/24/24 17/17/17 16/16/16
f  19/19/19 26/26/26 25/25/25
f  25/25/25 20/20/20 19/19/19
f  29/33/29 30/34/30 31/35/31
f  31/35/31 32/36/32 29/33/29
f  33/37/33 31/35/31 30/34/30
f  30/34/30 34/38/34 33/37/33
f  35/39/35 29/33/29 32/36/32
f  32/36/32 36/40/36 35/39/35
f  34/38/34 37/41/37 38/42/38
f  38/42/38 33/43/33 34/38/34
f  39/44/39 38/45/38 37/41/37
f  37/41/37 40/46/40 39/44/39
f  41/47/41 39/44/39 40/46/40
f  40/46/40 42/48/42 41/47/41
f  43/49/43 44/50/44 45/51/45
f  45/51/45 46/52/46 43/49/43
f  47/53/47 45/51/45 44/50/44
f  44/50/44 48/54/48 47/53/47
f  49/55/49 47/53/47 48/56/48
f  48/56/48 50/57/50 49/55/49
f  36/40/36 51/58/51 52/59/52
f  52/59/52 35/39/35 36/40/36
f  46/52/46 52/59/52 51/58/51
f  51/58/51 43/49/43 46/52/46
f  42/48/42 53/60/53 54/61/54
f  54/61/54 41/47/41 42/48/42
f  55/62/55 54/61/54 53/60/53
f  53/60/53 56/63/56 55/62/55
f  50/57/50 55/62/55 56/63/56
f  56/63/56 49/55/49 50/57/50
f  34/38/34 30/34/30 29/33/29
f  29/33/29 57/64/57 34/38/34
f  58/65/58 46/52/46 45/51/45
f  58/65/58 45/51/45 47/53/47
f  59/66/59 60/67/60 35/39/35
f  35/39/35 52/59/52 59/66/59
f  31/68/31 1/1/1 4/4/4
f  4/4/4 32/36/32 31/68/31
f  33/69/33 13/13/13 1/1/1
f  1/1/1 31/68/31 33/69/33
f  6/6/6 38/45/38 39/44/39
f  39/44/39 7/7/7 6/6/6
f  54/61/54 24/24/24 23/23/23
f  23/23/23 41/47/61 54/61/54
f  50/57/50 18/18/18 17/17/17
f  17/17/17 55/62/55 50/57/50
f  44/70/44 9/9/9 12/12/12
f  12/12/12 48/71/48 44/70/44
f  44/70/44 43/49/43 19/19/19
f  19/19/19 9/9/9 44/70/44
f  51/58/51 36/40/36 27/27/27
f  27/27/27 26/26/26 51/58/51
f  49/55/49 56/63/56 58/65/58
f  58/65/58 47/53/47 49/55/49
f  53/60/53 42/48/42 60/67/60
f  60/67/60 59/66/59 53/60/53
f  37/41/37 34/38/34 57/64/57
f  57/64/57 40/46/40 37/41/37
f  38/72/38 6/29/6 13/13/13
f  13/13/13 33/69/33 38/72/38
f  50/73/50 48/71/48 12/12/12
f  12/12/12 18/31/18 50/73/50
f  39/44/39 41/47/61 23/23/23
f  23/23/23 7/7/7 39/44/39
f  40/46/40 57/64/57 60/67/60
f  60/67/60 42/48/42 40/46/40
f  57/64/57 29/33/29 35/39/35
f  35/39/35 60/67/60 57/64/57
f  36/40/36 32/36/32 4/4/4
f  4/4/4 27/27/27 36/40/36
f  54/61/54 55/62/55 17/17/17
f  17/17/17 24/24/24 54/61/54
f  53/60/53 59/66/59 58/65/58
f  58/65/58 56/63/56 53/60/53
f  59/66/59 52/59/52 46/52/46
f  46/52/46 58/65/58 59/66/59
f  43/49/43 51/58/51 26/26/26
f  26/26/26 19/19/19 43/49/43

