# This file uses centimeters as units for non-parametric coordinates.

mtllib roche8_low.mtl
g roche8_low2:default1
v -8.010187 1.922449 1.759661
v -5.378757 1.922449 3.845157
v -8.010187 1.922449 -0.030571
v -5.378757 1.922449 -2.116067
v 7.817997 1.922449 5.356218
v 7.817997 1.922449 -3.627128
v 5.847823 1.922449 -4.237067
v 5.847799 1.922449 5.964799
v 0.763460 1.922449 -3.827639
v 0.667619 1.922449 5.762127
v -1.584820 1.922449 -2.715557
v -1.580075 1.922449 4.433983
v -4.097693 0.062244 1.348557
v -3.009916 0.062244 2.108625
v -4.091554 0.062244 0.484618
v -3.013431 0.062244 -0.287723
v 3.670146 0.062244 1.924242
v 3.670146 0.062244 -0.094839
v 3.112109 0.062244 -0.697060
v 3.093701 0.062244 2.560477
v -0.185883 0.062244 -0.551938
v -0.141958 0.062244 2.849050
v -1.193189 0.062244 -0.889117
v -1.121183 0.062244 2.741502
v 2.062659 1.922449 5.823613
v 0.839671 0.062244 2.761539
v 0.814641 0.062244 -0.595956
v 2.305943 1.922449 -3.951850
v 2.383282 1.922449 5.389938
v 0.929666 0.062244 2.505061
v 0.906386 0.062244 -0.599992
v 2.447389 1.922449 -3.963240
v 2.909614 1.922449 5.841463
v 1.124638 0.062244 2.736125
v 1.105116 0.062244 -0.608733
v 2.753729 1.922449 -3.987909
v -4.616021 1.922449 -1.866566
v -2.648856 0.062244 -0.202076
v -2.610722 0.062244 2.242382
v -4.575849 1.922449 3.969614
v -4.894201 1.922449 -2.192633
v -2.780950 0.062244 -0.364528
v -2.768673 0.062244 2.189446
v -4.893594 1.922449 3.920361
v -4.290313 1.922449 -2.288055
v -2.491251 0.062244 -0.460254
v -2.468046 0.062244 2.290195
v -4.288952 1.922449 4.014085
v -5.721716 0.491718 1.756003
v -5.447237 0.300501 1.726667
v -5.721716 0.491718 -0.026690
v -5.447237 0.300501 0.002681
v -3.685942 0.447175 3.325019
v -3.513637 0.255297 3.204819
v -3.224311 0.258354 3.258535
v -3.380339 0.451323 3.379853
v -3.513637 0.255307 -1.475475
v -3.685954 0.447145 -1.595726
v -1.293905 0.472151 -2.026779
v -1.248309 0.281308 -1.900559
v -2.999507 0.454781 -1.718935
v -2.863738 0.263354 -1.597510
v 5.692619 0.482310 4.054802
v 5.439945 0.296834 3.834509
v 3.692303 0.102231 4.245176
v 3.868129 0.283370 4.469865
v 5.692611 0.482330 -2.325472
v 5.439933 0.296814 -2.105136
v 3.868290 0.282619 -2.740177
v 3.692384 0.101844 -2.515422
v 1.420151 0.132360 -2.295854
v 1.515218 0.316087 -2.507982
v -0.006139 0.353439 4.305813
v -0.041518 0.167163 4.105035
v 1.059953 0.334897 4.354373
v 0.986974 0.148948 4.147885
v -0.041518 0.149253 -2.152348
v -0.000108 0.332432 -2.360520
v -1.248309 0.288181 3.630307
v -1.293378 0.479106 3.755107
v 1.277645 0.330497 4.084907
v 1.195594 0.144368 3.889417
v 1.091353 0.135845 -2.263239
v 1.174424 0.319533 -2.474923
v 1.645657 0.328245 4.369040
v 1.547376 0.142036 4.159239
v 1.195226 0.134612 -2.273414
v 1.282039 0.318268 -2.485437
v -3.058027 0.259797 -1.341863
v -3.205070 0.452003 -1.451518
v -3.380025 0.451356 -1.649920
v -3.224311 0.258090 -1.529410
v -3.034825 0.261063 3.294087
v -3.180217 0.453967 3.415835
v -2.863738 0.263522 3.326204
v -2.999532 0.456355 3.448327
vt 0.240353 0.615296
vt 0.333054 0.521755
vt 0.078455 0.518349
vt 0.170179 0.615296
vt 0.020085 0.081351
vt 0.415377 0.086982
vt 0.383125 0.011719
vt 0.053878 0.011719
vt 0.011719 0.200031
vt 0.423768 0.201113
vt 0.043272 0.367435
vt 0.373868 0.384101
vt 0.419651 0.296976
vt 0.015159 0.274177
vt 0.339129 0.503357
vt 0.073045 0.499335
vt 0.406866 0.925230
vt 0.438192 0.926112
vt 0.450695 0.976035
vt 0.388228 0.974712
vt 0.467110 0.887355
vt 0.506661 0.907223
vt 0.470345 0.878697
vt 0.509198 0.896865
vt 0.379467 0.885745
vt 0.335399 0.903863
vt 0.376700 0.877274
vt 0.333486 0.893525
vt 0.487297 0.665875
vt 0.464635 0.644581
vt 0.534331 0.577206
vt 0.548357 0.644221
vt 0.391849 0.643415
vt 0.320677 0.577206
vt 0.369808 0.663255
vt 0.304696 0.640315
vt 0.371545 0.736232
vt 0.310270 0.722914
vt 0.493131 0.737442
vt 0.544962 0.721578
vt 0.372833 0.783124
vt 0.359606 0.819252
vt 0.321918 0.819842
vt 0.315018 0.775782
vt 0.492282 0.819357
vt 0.496616 0.783730
vt 0.541903 0.779932
vt 0.525960 0.824784
vt 0.493885 0.747808
vt 0.544450 0.743105
vt 0.371883 0.746759
vt 0.311284 0.734850
vt 0.425871 0.243938
vt 0.012669 0.216793
vt 0.484651 0.744412
vt 0.535872 0.734844
vt 0.371775 0.743433
vt 0.310966 0.731081
vt 0.414680 0.227006
vt 0.012384 0.211518
vt 0.373573 0.866668
vt 0.382569 0.872555
vt 0.339356 0.887053
vt 0.331510 0.878260
vt 0.472470 0.873040
vt 0.474393 0.867928
vt 0.512227 0.883824
vt 0.510803 0.890023
vt 0.069009 0.482777
vt 0.342799 0.491442
vt 0.346002 0.480782
vt 0.058148 0.466505
vt 0.238259 0.517772
vt 0.295215 0.446134
vt 0.174055 0.517772
vt 0.119666 0.443761
vt 0.297854 0.434849
vt 0.299812 0.427785
vt 0.117326 0.435599
vt 0.102680 0.353920
vt 0.111031 0.416562
vt 0.093751 0.305836
vt 0.119895 0.425548
vt 0.330680 0.104444
vt 0.104426 0.104444
vt 0.344598 0.170542
vt 0.343744 0.250713
vt 0.086961 0.166764
vt 0.092647 0.251022
vt 0.093196 0.259589
vt 0.339695 0.313638
vt 0.343227 0.276098
vt 0.318172 0.359585
vt 0.334659 0.266890
vt 0.093234 0.263463
vt 0.301555 0.421334
vt 0.519912 0.889707
vt 0.518422 0.896384
vt 0.325678 0.899089
vt 0.329175 0.890102
vt 0.301025 0.731900
vt 0.300690 0.727940
vt 0.555324 0.718478
vt 0.546513 0.732306
vt 0.533951 0.827592
vt 0.304885 0.774622
vt 0.554574 0.740796
vt 0.551969 0.779448
vt 0.300004 0.719342
vt 0.294549 0.633218
vt 0.312255 0.565788
vt 0.558663 0.637391
vt 0.543105 0.565788
vt 0.323263 0.882580
vt 0.313792 0.822025
vt 0.328240 0.911162
vt 0.516662 0.903823
vt 0.513180 0.915207
vt 0.385646 0.988281
vt 0.452734 0.988281
vt 0.745087 0.356793
vt 0.727162 0.454801
vt 0.497990 0.449212
vt 0.485102 0.350336
vt 0.711548 0.466275
vt 0.723161 0.476677
vt 0.500867 0.471282
vt 0.499355 0.459683
vt 0.795168 0.200143
vt 0.794001 0.211261
vt 0.453823 0.205370
vt 0.437866 0.185834
vt 0.793463 0.216395
vt 0.437771 0.216649
vt 0.787590 0.272377
vt 0.438780 0.267433
vt 0.719951 0.494230
vt 0.503175 0.488990
vt 0.806948 0.087847
vt 0.435964 0.078881
vt 0.786500 0.011719
vt 0.459826 0.011719
vt 0.641800 0.588088
vt 0.576699 0.588088
vn 0.000000 1.000000 0.000000
vn 0.000000 1.000000 0.000000
vn 0.000000 1.000000 0.000000
vn 0.000000 1.000000 0.000000
vn 0.000000 1.000000 0.000000
vn 0.000000 1.000000 0.000000
vn 0.000000 1.000000 0.000000
vn 0.000000 1.000000 0.000000
vn 0.000000 1.000000 0.000000
vn 0.000000 1.000000 0.000000
vn 0.000000 1.000000 0.000000
vn 0.000000 1.000000 0.000000
vn 0.000000 1.000000 0.000000
vn 0.000000 1.000000 0.000000
vn 0.000000 1.000000 0.000000
vn 0.000000 1.000000 0.000000
vn 0.000000 1.000000 0.000000
vn 0.000000 1.000000 0.000000
vn 0.000000 1.000000 0.000000
vn 0.000000 1.000000 0.000000
vn -0.206792 -0.969318 -0.132890
vn -0.208172 -0.968888 0.133866
vn -0.957761 -0.287564 0.000000
vn -0.957761 -0.287564 0.000000
vn -0.208172 -0.968888 0.133866
vn -0.124008 -0.971869 0.200233
vn -0.506727 -0.346218 0.789532
vn -0.556348 -0.325832 0.764402
vn -0.124008 -0.971869 0.200233
vn -0.034001 -0.991996 0.121604
vn -0.201020 -0.429873 0.880228
vn -0.506727 -0.346218 0.789532
vn -0.125776 -0.971496 -0.200940
vn -0.206792 -0.969318 -0.132890
vn -0.556348 -0.325833 -0.764401
vn -0.506807 -0.346215 -0.789482
vn -0.029309 -0.993928 -0.106054
vn -0.125776 -0.971496 -0.200940
vn -0.506807 -0.346215 -0.789482
vn -0.200654 -0.436435 -0.877076
vn 0.026654 -0.995689 0.088841
vn 0.195264 -0.979565 0.048212
vn 0.330808 -0.742613 0.582316
vn 0.138306 -0.715695 0.684582
vn 0.195264 -0.979565 0.048212
vn 0.193807 -0.979991 -0.045337
vn 0.914131 -0.405419 0.000000
vn 0.330808 -0.742613 0.582316
vn 0.193807 -0.979991 -0.045337
vn 0.019234 -0.995584 -0.091882
vn 0.095982 -0.734890 -0.671360
vn 0.914131 -0.405419 0.000000
vn 0.019234 -0.995584 -0.091882
vn -0.002904 -0.998141 -0.060880
vn -0.056470 -0.703903 -0.708048
vn 0.095982 -0.734890 -0.671360
vn -0.009037 -0.997099 0.075583
vn 0.026654 -0.995689 0.088841
vn 0.138306 -0.715695 0.684582
vn -0.060649 -0.671906 0.738149
vn 0.005169 -0.998028 -0.062553
vn -0.010721 -0.992616 -0.120824
vn -0.132954 -0.417923 -0.898701
vn -0.046910 -0.589472 -0.806425
vn -0.024501 -0.994297 0.103798
vn -0.005317 -0.996197 0.086972
vn -0.147687 -0.437314 0.887099
vn -0.234361 -0.374020 0.897320
vn -0.206792 -0.969318 -0.132890
vn -0.125776 -0.971496 -0.200940
vn -0.124008 -0.971869 0.200233
vn -0.208172 -0.968888 0.133866
vn 0.026654 -0.995689 0.088841
vn 0.019234 -0.995584 -0.091882
vn 0.193807 -0.979991 -0.045337
vn 0.195264 -0.979565 0.048212
vn -0.009037 -0.997099 0.075583
vn -0.002904 -0.998141 -0.060880
vn 0.019234 -0.995584 -0.091882
vn 0.026654 -0.995689 0.088841
vn -0.024501 -0.994297 0.103798
vn -0.010721 -0.992616 -0.120824
vn 0.005169 -0.998028 -0.062553
vn -0.005317 -0.996197 0.086972
vn -0.125776 -0.971496 -0.200940
vn -0.029309 -0.993928 -0.106054
vn -0.034001 -0.991996 0.121604
vn -0.124008 -0.971869 0.200233
vn -0.005317 -0.996197 0.086972
vn 0.030527 -0.996480 0.078072
vn 0.000692 -0.523843 0.851815
vn -0.147687 -0.437314 0.887099
vn -0.005317 -0.996197 0.086972
vn 0.005169 -0.998028 -0.062553
vn -0.003550 -0.997200 -0.074700
vn 0.030527 -0.996480 0.078072
vn -0.003550 -0.997200 -0.074700
vn 0.005169 -0.998028 -0.062553
vn -0.046910 -0.589472 -0.806425
vn -0.058904 -0.661635 -0.747509
vn 0.000000 1.000000 0.000000
vn 0.000000 1.000000 0.000000
vn 0.000000 1.000000 0.000000
vn 0.000000 1.000000 0.000000
vn 0.030527 -0.996480 0.078072
vn 0.596953 -0.719425 0.355071
vn 0.720570 -0.374790 0.583362
vn 0.726458 -0.355304 0.588233
vn 0.030527 -0.996480 0.078072
vn -0.003550 -0.997200 -0.074700
vn -0.003191 -0.997745 -0.067045
vn -0.019417 -0.999540 0.023317
vn -0.003191 -0.997745 -0.067045
vn -0.003550 -0.997200 -0.074700
vn -0.058904 -0.661635 -0.747509
vn -0.058035 -0.677597 -0.733140
vn 0.000000 1.000000 0.000000
vn 0.000000 1.000000 0.000000
vn 0.000000 1.000000 0.000000
vn 0.000000 1.000000 0.000000
vn -0.019417 -0.999540 0.023317
vn -0.009037 -0.997099 0.075583
vn -0.060649 -0.671906 0.738149
vn -0.486409 -0.558406 0.672004
vn -0.019417 -0.999540 0.023317
vn -0.003191 -0.997745 -0.067045
vn -0.002904 -0.998141 -0.060880
vn -0.009037 -0.997099 0.075583
vn -0.002904 -0.998141 -0.060880
vn -0.003191 -0.997745 -0.067045
vn -0.058035 -0.677597 -0.733140
vn -0.056470 -0.703903 -0.708048
vn 0.000000 1.000000 0.000000
vn 0.000000 1.000000 0.000000
vn 0.000000 1.000000 0.000000
vn 0.000000 1.000000 0.000000
vn -0.040311 -0.995044 -0.090896
vn -0.039183 -0.998854 -0.027488
vn -0.782933 -0.220048 -0.581889
vn -0.786743 -0.195389 -0.585541
vn -0.031524 -0.993137 0.112631
vn -0.039183 -0.998854 -0.027488
vn -0.040311 -0.995044 -0.090896
vn -0.024344 -0.995941 0.086650
vn -0.031524 -0.993137 0.112631
vn -0.024344 -0.995941 0.086650
vn -0.209880 -0.352756 0.911874
vn -0.202881 -0.415001 0.886912
vn 0.000000 1.000000 0.000000
vn 0.000000 1.000000 0.000000
vn 0.000000 1.000000 0.000000
vn 0.000000 1.000000 0.000000
vn 0.587347 -0.598091 -0.545262
vn 0.587347 -0.598091 -0.545262
vn 0.706604 -0.278181 -0.650635
vn 0.705549 -0.281897 -0.650181
vn -0.034001 -0.991996 0.121604
vn -0.029309 -0.993928 -0.106054
vn -0.039183 -0.998854 -0.027488
vn -0.031524 -0.993137 0.112631
vn -0.034001 -0.991996 0.121604
vn -0.031524 -0.993137 0.112631
vn -0.202881 -0.415001 0.886912
vn -0.201020 -0.429873 0.880228
vn 0.000000 1.000000 0.000000
vn 0.000000 1.000000 0.000000
vn 0.000000 1.000000 0.000000
vn 0.000000 1.000000 0.000000
vn -0.010721 -0.992616 -0.120824
vn -0.040311 -0.995044 -0.090896
vn -0.210796 -0.348170 -0.913424
vn -0.132954 -0.417923 -0.898701
vn -0.024344 -0.995941 0.086650
vn -0.040311 -0.995044 -0.090896
vn -0.010721 -0.992616 -0.120824
vn -0.024501 -0.994297 0.103798
vn -0.024344 -0.995941 0.086650
vn -0.024501 -0.994297 0.103798
vn -0.234361 -0.374020 0.897320
vn -0.209880 -0.352756 0.911874
vn 0.000000 1.000000 0.000000
vn 0.000000 1.000000 0.000000
vn 0.000000 1.000000 0.000000
vn 0.000000 1.000000 0.000000
vn -0.591534 0.215322 0.776996
vn -0.591534 0.215322 0.776996
vn -0.558802 0.208968 0.802541
vn -0.546997 0.206634 0.811231
vn -0.969646 0.244514 0.000000
vn -0.969646 0.244514 0.000000
vn -0.969646 0.244514 0.000000
vn -0.969646 0.244514 0.000000
vn -0.591543 0.215287 -0.776999
vn -0.591543 0.215287 -0.776999
vn -0.546827 0.206899 -0.811279
vn -0.558664 0.209152 -0.802590
vn -0.546997 0.206634 0.811231
vn -0.558802 0.208968 0.802541
vn -0.180039 0.128977 0.975167
vn -0.180169 0.130109 0.974993
vn -0.180169 0.130109 0.974993
vn -0.180039 0.128977 0.975167
vn -0.180798 0.139656 0.973554
vn -0.180792 0.140684 0.973408
vn -0.558664 0.209152 -0.802590
vn -0.546827 0.206899 -0.811279
vn -0.178820 0.127870 -0.975537
vn -0.178820 0.127870 -0.975537
vn -0.199986 0.124093 -0.971909
vn -0.197802 0.131612 -0.971366
vn -0.179603 0.192421 -0.964737
vn -0.179603 0.192421 -0.964737
vn -0.197802 0.131612 -0.971366
vn -0.199986 0.124093 -0.971909
vn -0.154768 -0.087282 -0.984088
vn -0.174824 -0.049885 -0.983335
vn -0.649155 0.576546 -0.496178
vn -0.786743 -0.195389 -0.585541
vn -0.782933 -0.220048 -0.581889
vn -0.639872 0.592646 -0.489218
vn 0.711833 0.702349 0.000000
vn 0.933726 0.357990 -0.000002
vn 0.933726 0.357990 -0.000002
vn 0.711831 0.702351 0.000000
vn 0.240480 -0.180887 0.953651
vn 0.240480 -0.180887 0.953651
vn 0.070546 -0.173593 0.982287
vn 0.103901 -0.175424 0.978995
vn 0.103901 -0.175424 0.978995
vn 0.070546 -0.173593 0.982287
vn -0.045267 -0.165761 0.985127
vn -0.045267 -0.165761 0.985127
vn 0.240392 -0.181355 -0.953584
vn 0.240392 -0.181355 -0.953584
vn 0.072145 -0.192999 -0.978543
vn 0.034597 -0.194820 -0.980229
vn 0.034597 -0.194820 -0.980229
vn 0.072145 -0.192999 -0.978543
vn -0.097952 -0.197668 -0.975363
vn -0.097955 -0.197954 -0.975305
vn -0.097955 -0.197954 -0.975305
vn -0.097952 -0.197668 -0.975363
vn -0.097847 -0.186438 -0.977582
vn -0.097848 -0.186267 -0.977615
vn -0.209965 0.018521 0.977533
vn -0.147687 -0.437314 0.887099
vn 0.000692 -0.523843 0.851815
vn -0.045044 -0.097195 0.994246
vn -0.147687 -0.437314 0.887099
vn -0.209965 0.018521 0.977533
vn -0.268154 0.166164 0.948938
vn -0.259923 0.168869 0.950749
vn 0.788094 0.023006 0.615125
vn 0.726458 -0.355304 0.588233
vn 0.720570 -0.374790 0.583362
vn 0.788745 0.040463 0.613388
vn -0.174824 -0.049885 -0.983335
vn -0.154768 -0.087282 -0.984088
vn -0.097585 -0.190153 -0.976893
vn -0.097578 -0.190223 -0.976880
vn -0.259923 0.168869 0.950749
vn -0.268154 0.166164 0.948938
vn -0.180294 0.190220 0.965044
vn -0.180321 0.188331 0.965410
vn -0.582245 0.368963 0.724470
vn -0.609092 -0.057172 0.791036
vn -0.609092 -0.057172 0.791036
vn -0.581466 0.372692 0.723186
vn -0.097578 -0.190223 -0.976880
vn -0.097585 -0.190153 -0.976893
vn -0.097848 -0.186267 -0.977615
vn -0.097847 -0.186438 -0.977582
vn 0.742303 0.180025 -0.645428
vn 0.705549 -0.281897 -0.650181
vn 0.706604 -0.278181 -0.650635
vn 0.747457 0.126271 -0.652199
vn -0.180792 0.140684 0.973408
vn -0.180798 0.139656 0.973554
vn -0.180321 0.188331 0.965410
vn -0.180294 0.190220 0.965044
vn -0.706885 0.707329 0.000000
vn -0.706885 0.707329 0.000000
vn -0.706885 0.707329 0.000000
vn -0.706885 0.707329 0.000000
vn -0.444537 0.682509 0.580145
vn -0.444537 0.682508 0.580145
vn -0.412641 0.683595 0.602018
vn -0.409008 0.683653 0.604427
vn -0.409008 0.683653 0.604427
vn -0.412641 0.683595 0.602018
vn -0.128968 0.655184 0.744380
vn -0.128875 0.655872 0.743790
vn -0.444538 0.682508 -0.580146
vn -0.444538 0.682508 -0.580146
vn -0.409102 0.683598 -0.604425
vn -0.412729 0.683545 -0.602014
vn -0.412729 0.683545 -0.602014
vn -0.409102 0.683598 -0.604425
vn -0.129579 0.653031 -0.746164
vn -0.129579 0.653031 -0.746164
vn 0.183400 0.519822 0.834356
vn 0.183400 0.519822 0.834356
vn 0.051251 0.456568 0.888211
vn 0.070835 0.466605 0.881625
vn 0.664505 0.747284 0.000000
vn 0.711833 0.702349 0.000000
vn 0.711831 0.702351 0.000000
vn 0.664505 0.747284 0.000000
vn 0.183543 0.519220 -0.834699
vn 0.183543 0.519220 -0.834699
vn 0.044993 0.452640 -0.890558
vn 0.020133 0.439482 -0.898026
vn 0.020133 0.439482 -0.898026
vn 0.044993 0.452640 -0.890558
vn -0.080356 0.381251 -0.920973
vn -0.080335 0.381721 -0.920780
vn 0.070835 0.466605 0.881625
vn 0.051251 0.456568 0.888211
vn -0.035438 0.409426 0.911655
vn -0.035438 0.409426 0.911655
vn -0.167448 0.472559 -0.865245
vn -0.208083 0.522785 -0.826679
vn -0.182704 0.639228 -0.746998
vn -0.191494 0.632942 -0.750143
vn -0.252041 0.574139 0.779000
vn -0.201303 0.540747 0.816743
vn -0.228948 0.656888 0.718387
vn -0.220067 0.659334 0.718922
vn -0.036719 0.418952 0.907266
vn -0.036719 0.418952 0.907266
vn -0.201303 0.540747 0.816743
vn -0.252041 0.574139 0.779000
vn -0.081194 0.362036 -0.928621
vn -0.081209 0.361708 -0.928748
vn -0.208083 0.522785 -0.826679
vn -0.167448 0.472559 -0.865245
vn 0.788745 0.040463 0.613388
vn 0.789297 0.070884 0.609906
vn 0.789297 0.070884 0.609906
vn 0.788094 0.023006 0.615125
vn -0.080876 0.369272 -0.925796
vn -0.080885 0.369058 -0.925880
vn -0.081209 0.361708 -0.928748
vn -0.081194 0.362036 -0.928621
vn -0.581466 0.372692 0.723186
vn -0.565865 0.438703 0.698095
vn -0.565865 0.438703 0.698095
vn -0.582245 0.368963 0.724470
vn -0.080335 0.381721 -0.920780
vn -0.080356 0.381251 -0.920973
vn -0.080885 0.369058 -0.925880
vn -0.080876 0.369272 -0.925796
vn -0.639872 0.592646 -0.489218
vn -0.610506 0.639554 -0.467176
vn -0.610506 0.639554 -0.467176
vn -0.649155 0.576546 -0.496178
vn -0.128201 0.660816 0.739518
vn -0.128274 0.660287 0.739977
vn -0.125587 0.679422 0.722920
vn -0.125460 0.680301 0.722115
vn 0.747457 0.126271 -0.652199
vn 0.738337 0.210742 -0.640661
vn 0.738337 0.210742 -0.640661
vn 0.742303 0.180025 -0.645428
vn -0.128875 0.655872 0.743790
vn -0.128968 0.655184 0.744380
vn -0.128274 0.660287 0.739977
vn -0.128201 0.660816 0.739518
vn -0.126149 0.677380 -0.724736
vn -0.126149 0.677380 -0.724736
vn -0.191494 0.632942 -0.750143
vn -0.182704 0.639228 -0.746998
vn -0.125460 0.680301 0.722115
vn -0.125587 0.679422 0.722920
vn -0.220067 0.659334 0.718922
vn -0.228948 0.656888 0.718387
s off
g roche8_low2:modelPanel4ViewSelectedSet roche8_low2:pCube1 roche8_low2:polySurface1
usemtl roche8_low2:initialShadingGroup
f 1/144/1 2/138/2 4/137/3 3/143/4
f 7/139/5 8/140/6 5/142/7 6/141/8
f 36/129/9 33/132/10 8/140/11 7/139/12
f 11/121/13 12/124/14 10/136/15 9/135/16
f 4/137/17 2/138/18 44/127/19 41/126/20
f 15/17/21 13/18/22 50/19/23 52/20/24
f 13/18/25 14/21/26 54/22/27 50/19/28
f 14/21/29 43/23/30 55/24/31 54/22/32
f 16/25/33 15/17/34 52/20/35 57/26/36
f 42/27/37 16/25/38 57/26/39 92/28/40
f 20/29/41 17/30/42 64/31/43 65/32/44
f 17/30/45 18/33/46 68/34/47 64/31/48
f 18/33/49 19/35/50 70/36/51 68/34/52
f 19/35/53 35/37/54 71/38/55 70/36/56
f 34/39/57 20/29/58 65/32/59 86/40/60
f 21/41/61 23/42/62 60/43/63 77/44/64
f 24/45/65 22/46/66 74/47/67 79/48/68
f 15/17/69 16/25/70 14/21/71 13/18/72
f 20/29/73 19/35/74 18/33/75 17/30/76
f 34/39/77 35/37/78 19/35/79 20/29/80
f 24/45/81 23/42/82 21/41/83 22/46/84
f 16/25/85 42/27/86 43/23/87 14/21/88
f 22/46/89 26/49/90 76/50/91 74/47/92
f 22/46/93 21/41/94 27/51/95 26/49/96
f 27/51/97 21/41/98 77/44/99 83/52/100
f 9/135/101 10/136/102 25/134/103 28/133/104
f 26/49/105 30/55/106 82/56/107 76/50/108
f 26/49/109 27/51/110 31/57/111 30/55/112
f 31/57/113 27/51/114 83/52/115 87/58/116
f 28/133/117 25/134/118 29/131/119 32/130/120
f 30/55/121 34/39/122 86/40/123 82/56/124
f 30/55/125 31/57/126 35/37/127 34/39/128
f 35/37/129 31/57/130 87/58/131 71/38/132
f 32/130/133 29/131/134 33/132/135 36/129/136
f 46/61/137 38/62/138 89/63/139 62/64/140
f 39/65/141 38/62/142 46/61/143 47/66/144
f 39/65/145 47/66/146 95/67/147 93/68/148
f 37/125/149 40/128/150 48/123/151 45/122/152
f 38/62/153 42/27/154 92/28/155 89/63/156
f 43/23/157 42/27/158 38/62/159 39/65/160
f 43/23/161 39/65/162 93/68/163 55/24/164
f 41/126/165 44/127/166 40/128/167 37/125/168
f 23/42/169 46/61/170 62/64/171 60/43/172
f 47/66/173 46/61/174 23/42/175 24/45/176
f 47/66/177 24/45/178 79/48/179 95/67/180
f 45/122/181 48/123/182 12/124/183 11/121/184
f 49/120/185 50/19/186 54/22/187 53/118/188
f 50/19/189 49/120/190 51/119/191 52/20/192
f 52/20/193 51/119/194 58/116/195 57/26/196
f 53/118/197 54/22/198 55/24/199 56/117/200
f 56/117/201 55/24/202 93/68/203 94/98/204
f 57/26/205 58/116/206 91/99/207 92/28/208
f 59/115/209 60/43/210 62/64/211 61/114/212
f 60/43/213 59/115/214 78/106/215 77/44/216
f 61/114/217 62/64/218 89/63/219 90/100/220
f 63/113/221 64/31/222 68/34/223 67/111/224
f 64/31/225 63/113/226 66/112/227 65/32/228
f 65/32/229 66/112/230 85/103/231 86/40/232
f 67/111/233 68/34/234 70/36/235 69/110/236
f 69/110/237 70/36/238 71/38/239 72/109/240
f 72/109/241 71/38/242 87/58/243 88/102/244
f 73/108/245 74/47/246 76/50/247 75/107/248
f 74/47/249 73/108/250 80/105/251 79/48/252
f 75/107/253 76/50/254 82/56/255 81/104/256
f 77/44/257 78/106/258 84/101/259 83/52/260
f 79/48/261 80/105/262 96/97/263 95/67/264
f 81/104/265 82/56/266 86/40/267 85/103/268
f 83/52/269 84/101/270 88/102/271 87/58/272
f 90/100/273 89/63/274 92/28/275 91/99/276
f 94/98/277 93/68/278 95/67/279 96/97/280
f 49/73/281 1/1/282 3/4/283 51/75/284
f 1/1/285 49/73/286 53/74/287 2/2/288
f 2/2/289 53/74/290 56/77/291 44/15/292
f 51/75/293 3/4/294 4/3/295 58/76/296
f 58/76/297 4/3/298 41/16/299 91/79/300
f 63/84/301 5/7/302 8/6/303 66/86/304
f 5/7/305 63/84/306 67/85/307 6/8/308
f 6/8/309 67/85/310 69/88/311 7/5/312
f 7/5/313 69/88/314 72/89/315 36/9/316
f 66/86/317 8/6/318 33/10/319 85/87/320
f 9/14/321 78/82/322 59/80/323 11/11/324
f 73/91/325 10/13/326 12/12/327 80/93/328
f 75/92/329 25/53/330 10/13/331 73/91/332
f 28/54/333 84/95/334 78/82/335 9/14/336
f 81/94/337 29/59/338 25/53/339 75/92/340
f 32/60/341 88/90/342 84/95/343 28/54/344
f 85/87/345 33/10/346 29/59/347 81/94/348
f 36/9/349 72/89/350 88/90/351 32/60/352
f 90/83/353 37/69/354 45/72/355 61/81/356
f 40/70/357 94/78/358 96/96/359 48/71/360
f 91/79/361 41/16/362 37/69/363 90/83/364
f 44/15/365 56/77/366 94/78/367 40/70/368
f 61/81/369 45/72/370 11/11/371 59/80/372
f 48/71/373 96/96/374 80/93/375 12/12/376
