# File produced by Open Asset Import Library (http://www.assimp.sf.net)
# (assimp v3.1.71981620)

mtllib roche6.mtl

# 96 vertex positions
v  4.82558 14.5087 0.454351
v  1.42728 14.2899 0.467866
v  1.42115 14.5849 1.69363
v  4.92798 14.8222 1.67898
v  3.464 0.128617 0.415168
v  0.746686 -0.249917 0.428817
v  0.423661 1.43547 0.422448
v  4.04516 2.12992 0.424264
v  3.4519 -0.152979 1.6365
v  0.683321 -0.563343 1.6513
v  7.36169 1.85273 1.64809
v  5.87408 0.392402 1.62356
v  5.84132 0.631694 0.403227
v  7.21354 2.04662 0.425854
v  -2.7611 2.30886 0.42085
v  -2.07103 0.496611 0.440819
v  -2.17948 0.24596 1.66431
v  -2.96358 2.13702 1.64266
v  -1.5612 13.1649 0.479752
v  -2.5552 11.0326 0.440011
v  -2.74037 11.1803 1.66343
v  -1.66278 13.3653 1.70652
v  4.74014 11.1447 0.434608
v  0.858408 11.0851 0.437483
v  7.99605 13.9259 1.66616
v  8.36192 11.3584 1.65485
v  8.13619 11.1969 0.432094
v  7.79869 13.682 0.442527
v  -3.13342 7.72039 0.449518
v  -3.13342 4.77123 0.449518
v  -3.36721 4.66276 1.67374
v  -3.36721 7.72561 1.67374
v  3.7384 4.83868 0.442096
v  0.0820179 4.80279 0.446045
v  0.495376 7.97144 0.439825
v  4.6218 8.25693 0.428803
v  8.46571 8.57804 1.64083
v  7.06222 4.76992 1.66195
v  6.93729 4.87008 0.438641
v  8.23193 8.5067 0.419161
v  4.20865 8.05052 4.13157
v  0.904799 7.76503 4.14259
v  0.491442 5.2197 4.14881
v  3.32525 5.25559 4.14486
v  4.32699 10.3068 4.13737
v  1.26783 10.2471 4.14025
v  0.833085 3.30898 4.12521
v  3.63201 3.21377 4.12703
v  1.54857 14.0436 3.13878
v  4.76504 14.2743 3.12454
v  7.57908 13.4028 3.11208
v  7.93481 11.0444 3.10108
v  8.03573 8.48942 3.08745
v  6.67112 4.93321 3.10798
v  6.9623 2.2535 3.0945
v  5.5159 0.913833 3.07065
v  3.32986 0.383563 3.08324
v  0.831181 -0.0154309 3.09762
v  -1.79427 0.771449 3.11028
v  -2.54478 2.52991 3.08923
v  -2.93722 4.82902 3.11945
v  -2.93722 7.66061 3.11945
v  -2.32775 10.8713 3.10942
v  -1.28002 12.8578 3.15131
v  1.17107 1.30851 4.1312
v  -0.427395 2.02618 4.1422
v  -0.59294 1.84777 4.07695
v  1.12915 1.07662 4.04579
v  -1.70346 3.32196 4.03879
v  -1.50214 3.45013 4.12447
v  3.01946 1.67911 4.11856
v  3.07353 1.45885 4.03384
v  -1.30098 10.1445 4.1427
v  -0.33903 11.6397 4.17972
v  -0.492425 11.8236 4.10499
v  -1.50089 10.2533 4.0532
v  1.81307 12.9613 4.08598
v  1.87227 12.7374 4.16908
v  4.44114 13.1803 4.07306
v  4.39453 12.95 4.15618
v  -2.08735 5.15489 4.05664
v  -1.86634 5.20192 4.15207
v  5.92514 3.17036 4.12872
v  4.64927 2.17106 4.10813
v  4.76843 1.97222 4.02918
v  6.15641 3.0552 4.03985
v  5.66976 5.30586 4.1415
v  5.8893 5.25237 4.04028
v  -1.86857 7.49989 4.15189
v  -2.08923 7.52784 4.05457
v  6.55328 12.1622 4.14522
v  6.73611 12.3447 4.06585
v  7.08422 10.4185 4.04515
v  6.86947 10.344 4.13495
v  7.19039 8.31871 4.02113
v  6.96622 8.32442 4.12247

# 112 UV coordinates
vt 0.403497 0.670937 0
vt 0.253469 0.669461 0
vt 0.264827 0.62897 0
vt 0.396606 0.62984 0
vt 0.764298 0.167149 0
vt 0.856551 0.154297 0
vt 0.867518 0.211516 0
vt 0.744567 0.235094 0
vt 0.330477 0.053071 0
vt 0.223902 0.054522 0
vt 0.216134 0.014084 0
vt 0.339746 0.011719 0
vt 0.478039 0.131118 0
vt 0.420179 0.081782 0
vt 0.444045 0.048565 0
vt 0.511978 0.111455 0
vt 0.041278 0.147999 0
vt 0.096217 0.071267 0
vt 0.124918 0.102059 0
vt 0.079985 0.162881 0
vt 0.12638 0.607312 0
vt 0.057605 0.522982 0
vt 0.095355 0.505632 0
vt 0.152681 0.576897 0
vt 0.720973 0.541149 0
vt 0.852758 0.539124 0
vt 0.833445 0.647933 0
vt 0.718072 0.65536 0
vt 0.500512 0.578192 0
vt 0.54531 0.493971 0
vt 0.586221 0.502089 0
vt 0.529614 0.607287 0
vt 0.014214 0.385122 0
vt 0.011719 0.256611 0
vt 0.054003 0.258567 0
vt 0.054305 0.377177 0
vt 0.754983 0.327058 0
vt 0.879117 0.32584 0
vt 0.865083 0.433416 0
vt 0.724991 0.443109 0
vt 0.55764 0.387286 0
vt 0.520408 0.235101 0
vt 0.560904 0.224502 0
vt 0.59866 0.381031 0
vt 0.364129 0.366356 0
vt 0.251891 0.362191 0
vt 0.235584 0.282354 0
vt 0.332775 0.278536 0
vt 0.366678 0.438967 0
vt 0.266223 0.440878 0
vt 0.245338 0.22157 0
vt 0.337045 0.212864 0
vt 0.952213 0.179638 0
vt 0.975641 0.241167 0
vt 0.988281 0.32477 0
vt 0.988281 0.424893 0
vt 0.968651 0.537343 0
vt 0.934907 0.609748 0
vt 0.605677 0.542921 0
vt 0.617135 0.627289 0
vt 0.602426 0.451589 0
vt 0.64638 0.328125 0
vt 0.637 0.232268 0
vt 0.683586 0.184225 0
vt 0.275606 0.576861 0
vt 0.382682 0.579957 0
vt 0.470582 0.542074 0
vt 0.498526 0.47003 0
vt 0.506944 0.383138 0
vt 0.468373 0.254804 0
vt 0.445076 0.166625 0
vt 0.39486 0.124595 0
vt 0.322439 0.106445 0
vt 0.237785 0.103594 0
vt 0.154337 0.139236 0
vt 0.122578 0.192893 0
vt 0.104294 0.270044 0
vt 0.106083 0.36802 0
vt 0.137406 0.476101 0
vt 0.181566 0.536787 0
vt 0.25355 0.156823 0
vt 0.202967 0.182988 0
vt 0.197402 0.177457 0
vt 0.251796 0.149018 0
vt 0.16033 0.224218 0
vt 0.16749 0.228444 0
vt 0.313463 0.163555 0
vt 0.314724 0.155527 0
vt 0.181004 0.44284 0
vt 0.21559 0.488285 0
vt 0.210731 0.494691 0
vt 0.174075 0.447135 0
vt 0.285749 0.528992 0
vt 0.28755 0.521083 0
vt 0.369353 0.533122 0
vt 0.367736 0.525145 0
vt 0.147063 0.282631 0
vt 0.155307 0.284132 0
vt 0.41044 0.206119 0
vt 0.366163 0.176458 0
vt 0.369433 0.1693 0
vt 0.417373 0.201623 0
vt 0.416236 0.274889 0
vt 0.424867 0.27228 0
vt 0.157222 0.358491 0
vt 0.149063 0.359896 0
vt 0.435463 0.497287 0
vt 0.44102 0.503127 0
vt 0.45836 0.444124 0
vt 0.450705 0.441236 0
vt 0.46466 0.376195 0
vt 0.456434 0.376135 0

# 121 vertex normals
vn 0.088204 0.965623 -0.244526
vn -0.21025 0.952173 -0.221722
vn -0.213229 0.971705 0.101597
vn 0.107066 0.989791 0.094083
vn -0.002216 0.003848 -0.99999
vn -0.002775 -0.002641 -0.999993
vn -0.001386 0.00288 -0.999995
vn -0.001176 0.006275 -0.99998
vn 0.18138 -0.978659 0.09658
vn -0.077684 -0.992337 0.096089
vn -0.062937 -0.969467 -0.237007
vn 0.171658 -0.960606 -0.218563
vn 0.94661 -0.299536 0.119197
vn 0.690515 -0.709105 0.142684
vn 0.699535 -0.692915 -0.174699
vn 0.963245 -0.228808 -0.140735
vn -0.952753 -0.23951 -0.186809
vn -0.913343 -0.365588 -0.179301
vn -0.579547 -0.807039 0.113199
vn -0.958943 -0.266515 0.096943
vn -0.888002 0.429252 -0.164908
vn -0.945914 0.274066 -0.173596
vn -0.950309 0.295594 0.097655
vn -0.890792 0.438875 0.117809
vn -0.001989 0.004303 -0.999989
vn -0.002605 0.004848 -0.999985
vn -0.003218 0.009757 -0.999947
vn -0.002175 0.006737 -0.999975
vn 0.987149 0.14076 0.075649
vn 0.99255 0.092154 0.0797
vn 0.978535 0.081134 -0.189437
vn 0.972161 0.136157 -0.190694
vn -0.978844 0.09275 -0.182377
vn -0.979785 -0.064979 -0.189205
vn -0.994145 -0.076722 0.076089
vn -0.992325 0.096138 0.077772
vn -0.001289 0.001028 -0.999999
vn -0.001017 0.002745 -0.999996
vn -0.001778 -0.001244 -0.999998
vn -0.001796 -0.000976 -0.999998
vn 0.980255 -0.181874 0.077603
vn 0.984226 -0.152176 0.090235
vn 0.977751 -0.167117 -0.126785
vn 0.966984 -0.197031 -0.161621
vn 0.002248 0.001138 0.999997
vn 0.002232 0.001507 0.999996
vn 0.001467 -0.003705 0.999992
vn 0.001452 -0.001464 0.999998
vn 0.002504 -0.005336 0.999983
vn 0.00353 -0.006068 0.999975
vn 0.001569 -0.005216 0.999985
vn 0.001335 -0.008195 0.999966
vn -0.257768 -0.937374 -0.234279
vn -0.004085 -0.008713 -0.999954
vn -9.3e-05 0.005529 -0.999985
vn -0.000643 0.003557 -0.999994
vn -0.001784 -0.00122 -0.999998
vn -0.002692 0.00348 -0.99999
vn -0.004933 0.014582 -0.999882
vn -0.353607 0.913737 -0.200117
vn -0.366141 0.923791 0.11203
vn 0.265022 0.93266 -0.244761
vn 0.280499 0.95512 0.095218
vn -0.001765 0.004165 -0.99999
vn -0.001632 0.005089 -0.999986
vn -0.001821 -0.000124 -0.999998
vn -0.001166 -0.000352 -0.999999
vn -0.000802 0.006716 -0.999977
vn -0.002685 0.010821 -0.999938
vn 0.219979 -0.970993 0.093716
vn 0.207833 -0.956277 -0.205765
vn -0.188659 0.809383 0.556154
vn 0.091632 0.823646 0.559653
vn 0.248713 0.793923 0.554823
vn 0.887924 0.13115 0.440897
vn 0.872573 0.080692 0.481774
vn 0.880795 -0.178811 0.438436
vn 0.884325 -0.15019 0.442054
vn 0.825025 -0.251075 0.506256
vn 0.375375 -0.731492 0.569222
vn 0.167408 -0.818766 0.549178
vn -0.063405 -0.826459 0.559416
vn -0.55544 -0.728615 0.400758
vn -0.798099 -0.246067 0.54999
vn -0.879486 -0.071876 0.470466
vn -0.879486 0.090327 0.467275
vn -0.82424 0.262824 0.501549
vn -0.524364 0.636782 0.565289
vn 0.000208 -0.047549 0.998869
vn -0.026817 -0.031445 0.999146
vn -0.322215 -0.438909 0.838771
vn -0.038761 -0.597754 0.800742
vn -0.585548 -0.197748 0.786149
vn -0.040059 -0.023957 0.99891
vn 0.012664 -0.042432 0.999019
vn 0.137673 -0.603806 0.785153
vn -0.034064 0.009003 0.999379
vn -0.024081 0.018455 0.99954
vn -0.382261 0.450365 0.806876
vn -0.630207 0.201285 0.749883
vn -0.147183 0.589694 0.794102
vn -0.005351 0.025132 0.99967
vn 0.065116 0.601775 0.796007
vn 0.007115 0.029564 0.999538
vn -0.687139 -0.054743 0.724461
vn -0.036409 -0.007676 0.999308
vn 0.059543 -0.024378 0.997928
vn 0.031891 -0.068759 0.997123
vn 0.263389 -0.530379 0.805806
vn 0.636077 -0.157871 0.755304
vn 0.030082 -0.005852 0.99953
vn 0.695632 -0.143685 0.703883
vn -0.036197 0.005713 0.999328
vn -0.688356 0.073914 0.721598
vn 0.038775 0.026521 0.998896
vn 0.433603 0.380672 0.816748
vn 0.682632 0.056051 0.72861
vn 0.03502 -0.002242 0.999384
vn 0.695652 -0.169999 0.697975
vn 0.050137 -0.012473 0.998664
vn -0.359638 -0.435241 0.825364

# Mesh 'g pCube1_pCube1' with 376 faces
g g pCube1_pCube1
usemtl initialShadingGroup
f  1/1/1 2/2/2 3/3/3
f  3/3/3 4/4/4 1/1/1
f  5/5/5 6/6/6 7/7/7
f  7/7/7 8/8/8 5/5/5
f  9/9/9 10/10/10 6/11/11
f  6/11/11 5/12/12 9/9/9
f  11/13/13 12/14/14 13/15/15
f  13/15/15 14/16/16 11/13/13
f  15/17/17 16/18/18 17/19/19
f  17/19/19 18/20/20 15/17/17
f  19/21/21 20/22/22 21/23/23
f  21/23/23 22/24/24 19/21/21
f  23/25/25 24/26/26 2/27/27
f  2/27/27 1/28/28 23/25/25
f  25/29/29 26/30/30 27/31/31
f  27/31/31 28/32/32 25/29/29
f  29/33/33 30/34/34 31/35/35
f  31/35/35 32/36/36 29/33/33
f  33/37/37 34/38/38 35/39/39
f  35/39/39 36/40/40 33/37/37
f  37/41/41 38/42/42 39/43/43
f  39/43/43 40/44/44 37/41/41
f  41/45/45 42/46/46 43/47/47
f  43/47/47 44/48/48 41/45/45
f  20/22/22 29/33/33 32/36/36
f  32/36/36 21/23/23 20/22/22
f  36/40/40 35/39/39 24/26/26
f  24/26/26 23/25/25 36/40/40
f  26/30/30 37/41/41 40/44/44
f  40/44/44 27/31/31 26/30/30
f  45/49/49 46/50/50 42/46/46
f  42/46/46 41/45/45 45/49/49
f  30/34/34 15/17/17 18/20/20
f  18/20/20 31/35/35 30/34/34
f  8/8/8 7/7/7 34/38/38
f  34/38/38 33/37/37 8/8/8
f  38/42/42 11/13/13 14/16/16
f  14/16/16 39/43/43 38/42/42
f  44/48/48 43/47/47 47/51/51
f  47/51/51 48/52/52 44/48/48
f  17/19/19 16/18/53 6/11/11
f  6/11/11 10/10/10 17/19/19
f  16/53/54 15/54/55 7/7/7
f  7/7/7 6/6/6 16/53/54
f  15/54/55 30/55/56 34/38/38
f  34/38/38 7/7/7 15/54/55
f  30/55/56 29/56/57 35/39/39
f  35/39/39 34/38/38 30/55/56
f  29/56/57 20/57/58 24/26/26
f  24/26/26 35/39/39 29/56/57
f  20/57/58 19/58/59 2/27/27
f  2/27/27 24/26/26 20/57/58
f  19/21/60 22/24/61 3/3/3
f  3/3/3 2/2/2 19/21/60
f  28/32/62 1/1/1 4/4/4
f  4/4/4 25/29/63 28/32/62
f  27/59/64 23/25/25 1/28/28
f  1/28/28 28/60/65 27/59/64
f  40/61/66 36/40/40 23/25/25
f  23/25/25 27/59/64 40/61/66
f  39/62/67 33/37/37 36/40/40
f  36/40/40 40/61/66 39/62/67
f  14/63/68 8/8/8 33/37/37
f  33/37/37 39/62/67 14/63/68
f  13/64/69 5/5/5 8/8/8
f  8/8/8 14/63/68 13/64/69
f  12/14/70 9/9/9 5/12/12
f  5/12/12 13/15/71 12/14/70
f  4/4/4 3/3/3 49/65/72
f  49/65/72 50/66/73 4/4/4
f  51/67/74 25/29/63 4/4/4
f  4/4/4 50/66/73 51/67/74
f  51/67/75 52/68/76 26/30/30
f  26/30/30 25/29/29 51/67/75
f  52/68/76 53/69/77 37/41/41
f  37/41/41 26/30/30 52/68/76
f  53/69/77 54/70/78 38/42/42
f  38/42/42 37/41/41 53/69/77
f  54/70/78 55/71/79 11/13/13
f  11/13/13 38/42/42 54/70/78
f  55/71/79 56/72/80 12/14/14
f  12/14/14 11/13/13 55/71/79
f  56/72/80 57/73/81 9/9/9
f  9/9/9 12/14/70 56/72/80
f  57/73/81 58/74/82 10/10/10
f  10/10/10 9/9/9 57/73/81
f  59/75/83 17/19/19 10/10/10
f  10/10/10 58/74/82 59/75/83
f  60/76/84 18/20/20 17/19/19
f  17/19/19 59/75/83 60/76/84
f  61/77/85 31/35/35 18/20/20
f  18/20/20 60/76/84 61/77/85
f  62/78/86 32/36/36 31/35/35
f  31/35/35 61/77/85 62/78/86
f  63/79/87 21/23/23 32/36/36
f  32/36/36 62/78/86 63/79/87
f  64/80/88 22/24/24 21/23/23
f  21/23/23 63/79/87 64/80/88
f  22/24/61 64/80/88 49/65/72
f  49/65/72 3/3/3 22/24/61
f  65/81/89 66/82/90 67/83/91
f  67/83/91 68/84/92 65/81/89
f  69/85/93 67/83/91 66/82/90
f  66/82/90 70/86/94 69/85/93
f  71/87/95 65/81/89 68/84/92
f  68/84/92 72/88/96 71/87/95
f  73/89/97 74/90/98 75/91/99
f  75/91/99 76/92/100 73/89/97
f  77/93/101 75/91/99 74/90/98
f  74/90/98 78/94/102 77/93/101
f  79/95/103 77/93/101 78/94/102
f  78/94/102 80/96/104 79/95/103
f  81/97/105 69/85/93 70/86/94
f  70/86/94 82/98/106 81/97/105
f  83/99/107 84/100/108 85/101/109
f  85/101/109 86/102/110 83/99/107
f  72/88/96 85/101/109 84/100/108
f  84/100/108 71/87/95 72/88/96
f  87/103/111 83/99/107 86/102/110
f  86/102/110 88/104/112 87/103/111
f  89/105/113 73/89/97 76/92/100
f  76/92/100 90/106/114 89/105/113
f  80/96/104 91/107/115 92/108/116
f  92/108/116 79/95/103 80/96/104
f  93/109/117 92/108/116 91/107/115
f  91/107/115 94/110/118 93/109/117
f  95/111/119 93/109/117 94/110/118
f  94/110/118 96/112/120 95/111/119
f  90/106/114 81/97/105 82/98/106
f  82/98/106 89/105/113 90/106/114
f  96/112/120 87/103/111 88/104/112
f  88/104/112 95/111/119 96/112/120
f  48/52/52 47/51/51 65/81/89
f  65/81/89 71/87/95 48/52/52
f  80/96/104 78/94/102 46/50/50
f  46/50/50 45/49/49 80/96/104
f  74/90/98 73/89/97 46/50/50
f  46/50/50 78/94/102 74/90/98
f  73/89/97 89/105/113 42/46/46
f  42/46/46 46/50/50 73/89/97
f  89/105/113 82/98/106 43/47/47
f  43/47/47 42/46/46 89/105/113
f  82/98/106 70/86/94 47/51/51
f  47/51/51 43/47/47 82/98/106
f  70/86/94 66/82/90 65/81/89
f  65/81/89 47/51/51 70/86/94
f  91/107/115 80/96/104 45/49/49
f  45/49/49 94/110/118 91/107/115
f  83/99/107 48/52/52 71/87/95
f  71/87/95 84/100/108 83/99/107
f  87/103/111 44/48/48 48/52/52
f  48/52/52 83/99/107 87/103/111
f  96/112/120 41/45/45 44/48/48
f  44/48/48 87/103/111 96/112/120
f  94/110/118 45/49/49 41/45/45
f  41/45/45 96/112/120 94/110/118
f  50/66/73 49/65/72 77/93/101
f  77/93/101 79/95/103 50/66/73
f  92/108/116 51/67/74 50/66/73
f  50/66/73 79/95/103 92/108/116
f  92/108/116 93/109/117 52/68/76
f  52/68/76 51/67/75 92/108/116
f  93/109/117 95/111/119 53/69/77
f  53/69/77 52/68/76 93/109/117
f  95/111/119 88/104/112 54/70/78
f  54/70/78 53/69/77 95/111/119
f  88/104/112 86/102/110 55/71/79
f  55/71/79 54/70/78 88/104/112
f  86/102/110 85/101/109 56/72/80
f  56/72/80 55/71/79 86/102/110
f  85/101/109 72/88/96 57/73/81
f  57/73/81 56/72/80 85/101/109
f  72/88/96 68/84/92 58/74/82
f  58/74/82 57/73/81 72/88/96
f  67/83/91 59/75/121 58/74/82
f  58/74/82 68/84/92 67/83/91
f  69/85/93 60/76/84 59/75/121
f  59/75/121 67/83/91 69/85/93
f  81/97/105 61/77/85 60/76/84
f  60/76/84 69/85/93 81/97/105
f  90/106/114 62/78/86 61/77/85
f  61/77/85 81/97/105 90/106/114
f  76/92/100 63/79/87 62/78/86
f  62/78/86 90/106/114 76/92/100
f  75/91/99 64/80/88 63/79/87
f  63/79/87 76/92/100 75/91/99
f  64/80/88 75/91/99 77/93/101
f  77/93/101 49/65/72 64/80/88
f  1/1/1 2/2/2 3/3/3
f  3/3/3 4/4/4 1/1/1
f  5/5/5 6/6/6 7/7/7
f  7/7/7 8/8/8 5/5/5
f  9/9/9 10/10/10 6/11/11
f  6/11/11 5/12/12 9/9/9
f  11/13/13 12/14/14 13/15/15
f  13/15/15 14/16/16 11/13/13
f  15/17/17 16/18/18 17/19/19
f  17/19/19 18/20/20 15/17/17
f  19/21/21 20/22/22 21/23/23
f  21/23/23 22/24/24 19/21/21
f  23/25/25 24/26/26 2/27/27
f  2/27/27 1/28/28 23/25/25
f  25/29/29 26/30/30 27/31/31
f  27/31/31 28/32/32 25/29/29
f  29/33/33 30/34/34 31/35/35
f  31/35/35 32/36/36 29/33/33
f  33/37/37 34/38/38 35/39/39
f  35/39/39 36/40/40 33/37/37
f  37/41/41 38/42/42 39/43/43
f  39/43/43 40/44/44 37/41/41
f  41/45/45 42/46/46 43/47/47
f  43/47/47 44/48/48 41/45/45
f  20/22/22 29/33/33 32/36/36
f  32/36/36 21/23/23 20/22/22
f  36/40/40 35/39/39 24/26/26
f  24/26/26 23/25/25 36/40/40
f  26/30/30 37/41/41 40/44/44
f  40/44/44 27/31/31 26/30/30
f  45/49/49 46/50/50 42/46/46
f  42/46/46 41/45/45 45/49/49
f  30/34/34 15/17/17 18/20/20
f  18/20/20 31/35/35 30/34/34
f  8/8/8 7/7/7 34/38/38
f  34/38/38 33/37/37 8/8/8
f  38/42/42 11/13/13 14/16/16
f  14/16/16 39/43/43 38/42/42
f  44/48/48 43/47/47 47/51/51
f  47/51/51 48/52/52 44/48/48
f  17/19/19 16/18/53 6/11/11
f  6/11/11 10/10/10 17/19/19
f  16/53/54 15/54/55 7/7/7
f  7/7/7 6/6/6 16/53/54
f  15/54/55 30/55/56 34/38/38
f  34/38/38 7/7/7 15/54/55
f  30/55/56 29/56/57 35/39/39
f  35/39/39 34/38/38 30/55/56
f  29/56/57 20/57/58 24/26/26
f  24/26/26 35/39/39 29/56/57
f  20/57/58 19/58/59 2/27/27
f  2/27/27 24/26/26 20/57/58
f  19/21/60 22/24/61 3/3/3
f  3/3/3 2/2/2 19/21/60
f  28/32/62 1/1/1 4/4/4
f  4/4/4 25/29/63 28/32/62
f  27/59/64 23/25/25 1/28/28
f  1/28/28 28/60/65 27/59/64
f  40/61/66 36/40/40 23/25/25
f  23/25/25 27/59/64 40/61/66
f  39/62/67 33/37/37 36/40/40
f  36/40/40 40/61/66 39/62/67
f  14/63/68 8/8/8 33/37/37
f  33/37/37 39/62/67 14/63/68
f  13/64/69 5/5/5 8/8/8
f  8/8/8 14/63/68 13/64/69
f  12/14/70 9/9/9 5/12/12
f  5/12/12 13/15/71 12/14/70
f  4/4/4 3/3/3 49/65/72
f  49/65/72 50/66/73 4/4/4
f  51/67/74 25/29/63 4/4/4
f  4/4/4 50/66/73 51/67/74
f  51/67/75 52/68/76 26/30/30
f  26/30/30 25/29/29 51/67/75
f  52/68/76 53/69/77 37/41/41
f  37/41/41 26/30/30 52/68/76
f  53/69/77 54/70/78 38/42/42
f  38/42/42 37/41/41 53/69/77
f  54/70/78 55/71/79 11/13/13
f  11/13/13 38/42/42 54/70/78
f  55/71/79 56/72/80 12/14/14
f  12/14/14 11/13/13 55/71/79
f  56/72/80 57/73/81 9/9/9
f  9/9/9 12/14/70 56/72/80
f  57/73/81 58/74/82 10/10/10
f  10/10/10 9/9/9 57/73/81
f  59/75/83 17/19/19 10/10/10
f  10/10/10 58/74/82 59/75/83
f  60/76/84 18/20/20 17/19/19
f  17/19/19 59/75/83 60/76/84
f  61/77/85 31/35/35 18/20/20
f  18/20/20 60/76/84 61/77/85
f  62/78/86 32/36/36 31/35/35
f  31/35/35 61/77/85 62/78/86
f  63/79/87 21/23/23 32/36/36
f  32/36/36 62/78/86 63/79/87
f  64/80/88 22/24/24 21/23/23
f  21/23/23 63/79/87 64/80/88
f  22/24/61 64/80/88 49/65/72
f  49/65/72 3/3/3 22/24/61
f  65/81/89 66/82/90 67/83/91
f  67/83/91 68/84/92 65/81/89
f  69/85/93 67/83/91 66/82/90
f  66/82/90 70/86/94 69/85/93
f  71/87/95 65/81/89 68/84/92
f  68/84/92 72/88/96 71/87/95
f  73/89/97 74/90/98 75/91/99
f  75/91/99 76/92/100 73/89/97
f  77/93/101 75/91/99 74/90/98
f  74/90/98 78/94/102 77/93/101
f  79/95/103 77/93/101 78/94/102
f  78/94/102 80/96/104 79/95/103
f  81/97/105 69/85/93 70/86/94
f  70/86/94 82/98/106 81/97/105
f  83/99/107 84/100/108 85/101/109
f  85/101/109 86/102/110 83/99/107
f  72/88/96 85/101/109 84/100/108
f  84/100/108 71/87/95 72/88/96
f  87/103/111 83/99/107 86/102/110
f  86/102/110 88/104/112 87/103/111
f  89/105/113 73/89/97 76/92/100
f  76/92/100 90/106/114 89/105/113
f  80/96/104 91/107/115 92/108/116
f  92/108/116 79/95/103 80/96/104
f  93/109/117 92/108/116 91/107/115
f  91/107/115 94/110/118 93/109/117
f  95/111/119 93/109/117 94/110/118
f  94/110/118 96/112/120 95/111/119
f  90/106/114 81/97/105 82/98/106
f  82/98/106 89/105/113 90/106/114
f  96/112/120 87/103/111 88/104/112
f  88/104/112 95/111/119 96/112/120
f  48/52/52 47/51/51 65/81/89
f  65/81/89 71/87/95 48/52/52
f  80/96/104 78/94/102 46/50/50
f  46/50/50 45/49/49 80/96/104
f  74/90/98 73/89/97 46/50/50
f  46/50/50 78/94/102 74/90/98
f  73/89/97 89/105/113 42/46/46
f  42/46/46 46/50/50 73/89/97
f  89/105/113 82/98/106 43/47/47
f  43/47/47 42/46/46 89/105/113
f  82/98/106 70/86/94 47/51/51
f  47/51/51 43/47/47 82/98/106
f  70/86/94 66/82/90 65/81/89
f  65/81/89 47/51/51 70/86/94
f  91/107/115 80/96/104 45/49/49
f  45/49/49 94/110/118 91/107/115
f  83/99/107 48/52/52 71/87/95
f  71/87/95 84/100/108 83/99/107
f  87/103/111 44/48/48 48/52/52
f  48/52/52 83/99/107 87/103/111
f  96/112/120 41/45/45 44/48/48
f  44/48/48 87/103/111 96/112/120
f  94/110/118 45/49/49 41/45/45
f  41/45/45 96/112/120 94/110/118
f  50/66/73 49/65/72 77/93/101
f  77/93/101 79/95/103 50/66/73
f  92/108/116 51/67/74 50/66/73
f  50/66/73 79/95/103 92/108/116
f  92/108/116 93/109/117 52/68/76
f  52/68/76 51/67/75 92/108/116
f  93/109/117 95/111/119 53/69/77
f  53/69/77 52/68/76 93/109/117
f  95/111/119 88/104/112 54/70/78
f  54/70/78 53/69/77 95/111/119
f  88/104/112 86/102/110 55/71/79
f  55/71/79 54/70/78 88/104/112
f  86/102/110 85/101/109 56/72/80
f  56/72/80 55/71/79 86/102/110
f  85/101/109 72/88/96 57/73/81
f  57/73/81 56/72/80 85/101/109
f  72/88/96 68/84/92 58/74/82
f  58/74/82 57/73/81 72/88/96
f  67/83/91 59/75/121 58/74/82
f  58/74/82 68/84/92 67/83/91
f  69/85/93 60/76/84 59/75/121
f  59/75/121 67/83/91 69/85/93
f  81/97/105 61/77/85 60/76/84
f  60/76/84 69/85/93 81/97/105
f  90/106/114 62/78/86 61/77/85
f  61/77/85 81/97/105 90/106/114
f  76/92/100 63/79/87 62/78/86
f  62/78/86 90/106/114 76/92/100
f  75/91/99 64/80/88 63/79/87
f  63/79/87 76/92/100 75/91/99
f  64/80/88 75/91/99 77/93/101
f  77/93/101 49/65/72 64/80/88

