# File produced by Open Asset Import Library (http://www.assimp.sf.net)
# (assimp v3.1.71981620)

mtllib roche2casse.mtl

# 80 vertex positions
v  -2.49408 5.26883 0.884463
v  -1.4082 11.5159 0.565289
v  -1.87004 11.4519 0.030756
v  -2.98112 5.23284 0.371184
v  0.193866 11.946 0.185387
v  -1.33078 11.9238 0.01573
v  0.201271 11.5125 0.741675
v  -1.87155 11.0235 -2.03161
v  -1.33944 11.4817 -2.05528
v  0.359627 9.14157 0.738514
v  0.277438 5.26932 1.09443
v  0.641551 5.26876 1.0925
v  2.11741 11.9238 0.023713
v  1.22783 11.9459 0.178532
v  1.23281 11.5128 0.73559
v  2.19988 11.5167 0.572821
v  0.193574 11.4587 -2.36735
v  0.353482 9.57487 0.181826
v  0.353458 9.08779 -2.36105
v  -2.97654 5.01368 -3.15359
v  -1.42772 10.9497 -2.57818
v  -2.51467 4.97781 -3.6864
v  0.199638 10.9628 -2.87427
v  2.23952 10.9767 -2.57912
v  1.2306 10.9636 -2.8644
v  1.22805 11.4591 -2.35522
v  2.15869 11.475 -2.09062
v  0.276916 4.98061 -4.03718
v  0.357694 8.59216 -2.86914
v  0.641552 4.98051 -4.03392
v  -3.08154 4.5402 0.421694
v  -3.58462 0.147461 0.823626
v  -3.10395 0.148399 1.33521
v  -2.60285 4.56906 0.934878
v  -3.08418 4.31245 -3.25076
v  0.284554 4.56712 1.14558
v  3.39278 4.56908 0.93994
v  3.8935 0.148399 1.33964
v  4.37169 0.14746 0.825734
v  3.86862 4.54013 0.423858
v  0.986498 4.56715 1.14171
v  3.28419 5.26875 0.889597
v  0.978384 5.26824 1.09071
v  3.76362 5.0134 -3.15722
v  3.76819 5.23301 0.373618
v  3.87125 4.31218 -3.25433
v  2.65685 11.4537 0.032132
v  2.65934 11.0205 -2.02842
v  3.30667 4.97756 -3.69428
v  0.284487 4.27941 -4.12568
v  -2.62089 4.28321 -3.77415
v  -3.58471 0.140065 -3.50772
v  -3.1141 0.139114 -4.02892
v  0.978868 4.98042 -4.03089
v  3.41267 4.28321 -3.78201
v  0.984064 4.28181 -4.11952
v  3.90533 0.139115 -4.03589
v  4.37177 0.140055 -3.51099
v  0.684259 0.148336 1.55221
v  0.649186 4.56713 1.14357
v  0.319626 0.148335 1.55395
v  0.319435 0.138992 -4.39301
v  0.647889 4.28066 -4.12248
v  0.684023 0.139032 -4.39015
v  1.02157 0.148337 1.5506
v  1.02129 0.139069 -4.38751
v  0.320803 0 1.56766
v  -3.12077 0 1.34865
v  0.685437 0 1.56593
v  3.9103 0 1.35306
v  1.02275 0 1.56433
v  4.38858 0 0.839224
v  4.38858 0 -3.5196
v  3.92187 0 -4.04441
v  1.02254 0 -4.39651
v  0.320608 0 -4.40198
v  0.685236 0 -4.39914
v  -3.13066 0 -4.03747
v  -3.60151 0 -3.51634
v  -3.60151 0 0.837119

# 115 UV coordinates
vt 0.270145 0.71936 0
vt 0.270145 0.988281 0
vt 0.240127 0.988281 0
vt 0.240127 0.71936 0
vt 0.431326 0.688004 0
vt 0.523251 0.688004 0
vt 0.523251 0.726836 0
vt 0.431326 0.726836 0
vt 0.557321 0.553145 0
vt 0.557321 0.688004 0
vt 0.523251 0.553145 0
vt 0.533525 0.403009 0
vt 0.523493 0.50374 0
vt 0.528841 0.23731 0
vt 0.544388 0.237219 0
vt 0.315271 0.688004 0
vt 0.389868 0.688004 0
vt 0.389868 0.726836 0
vt 0.315271 0.726836 0
vt 0.431326 0.553146 0
vt 0.409791 0.688004 0
vt 0.409791 0.553146 0
vt 0.347111 0.229995 0
vt 0.314986 0.491204 0
vt 0.285779 0.483766 0
vt 0.317596 0.224363 0
vt 0.431326 0.513257 0
vt 0.523251 0.513257 0
vt 0.315271 0.513257 0
vt 0.389868 0.513258 0
vt 0.389868 0.553146 0
vt 0.315271 0.553146 0
vt 0.197337 0.225862 0
vt 0.215777 0.486034 0
vt 0.188697 0.388319 0
vt 0.181612 0.225612 0
vt 0.240127 0.688568 0
vt 0.240127 0.50182 0
vt 0.270145 0.50182 0
vt 0.270145 0.688568 0
vt 0.101557 0.688568 0
vt 0.101557 0.71936 0
vt 0.410417 0.237581 0
vt 0.405819 0.207854 0
vt 0.529095 0.207204 0
vt 0.674665 0.378807 0
vt 0.674665 0.190882 0
vt 0.705066 0.190882 0
vt 0.705066 0.378807 0
vt 0.559002 0.207128 0
vt 0.661825 0.207388 0
vt 0.657355 0.237158 0
vt 0.558765 0.237136 0
vt 0.843326 0.40954 0
vt 0.705066 0.40954 0
vt 0.843326 0.378807 0
vt 0.674665 0.677573 0
vt 0.674665 0.40954 0
vt 0.705066 0.677573 0
vt 0.281234 0.688004 0
vt 0.281234 0.553145 0
vt 0.066758 0.223784 0
vt 0.096216 0.48497 0
vt 0.067329 0.49116 0
vt 0.037184 0.229067 0
vt 0.196996 0.195236 0
vt 0.321325 0.194855 0
vt 0.372785 0.021442 0
vt 0.350796 0.198997 0
vt 0.343008 0.018754 0
vt 0.167092 0.225371 0
vt 0.063127 0.19434 0
vt 0.167275 0.195099 0
vt 0.042219 0.018204 0
vt 0.033641 0.198528 0
vt 0.012433 0.020808 0
vt 0.545704 0.018092 0
vt 0.54463 0.207169 0
vt 0.530201 0.018119 0
vt 0.195913 0.01774 0
vt 0.181559 0.195183 0
vt 0.180435 0.0177 0
vt 0.613739 0.503634 0
vt 0.572033 0.50346 0
vt 0.14071 0.484763 0
vt 0.843326 0.677573 0
vt 0.101557 0.988281 0
vt 0.560047 0.018061 0
vt 0.682617 0.018481 0
vt 0.843326 0.190882 0
vt 0.166111 0.017652 0
vt 0.101557 0.50182 0
vt 0.454664 0.503733 0
vt 0.384188 0.019088 0
vt 0.409791 0.726836 0
vt 0.409791 0.513258 0
vt 0.347422 0.229227 0
vt 0.530241 0.011777 0
vt 0.383464 0.012745 0
vt 0.545739 0.01175 0
vt 0.683313 0.012135 0
vt 0.560079 0.011719 0
vt 0.674665 0.184574 0
vt 0.705066 0.184574 0
vt 0.843326 0.184574 0
vt 0.041524 0.012268 0
vt 0.011719 0.014834 0
vt 0.16607 0.011719 0
vt 0.195878 0.01181 0
vt 0.1804 0.011767 0
vt 0.343728 0.012821 0
vt 0.373523 0.01547 0
vt 0.240127 0.495551 0
vt 0.101557 0.495551 0
vt 0.270145 0.495551 0

# 86 vertex normals
vn -0.275026 0.095395 0.956693
vn -0.232135 0.13273 0.963585
vn -0.963552 0.234621 0.128536
vn -0.977207 0.180638 0.111518
vn -0.017034 0.999855 -0.000102
vn -0.185095 0.981871 -0.040857
vn -0.065344 0.119183 0.99072
vn -0.964494 0.231264 -0.127551
vn -0.200994 0.933855 -0.295832
vn 0.017992 0.073535 0.99713
vn -0.063758 0.061723 0.996055
vn -0.003672 0.072972 0.997327
vn 0.214114 0.975716 -0.046197
vn 0.019611 0.999802 -0.003247
vn 0.074341 0.121107 0.989852
vn 0.26828 0.137105 0.953534
vn -0.029414 0.94051 -0.338491
vn 0.027082 0.981705 -0.188471
vn -0.001649 0.982064 -0.188539
vn -0.966145 0.198618 -0.164668
vn -0.291343 0.252915 -0.92258
vn -0.296404 0.210422 -0.931594
vn -0.10673 0.239526 -0.965006
vn 0.332075 0.25638 -0.907742
vn 0.121597 0.240734 -0.962944
vn 0.030868 0.942415 -0.333019
vn 0.231674 0.929006 -0.288575
vn -0.104201 0.187495 -0.976723
vn 0.035727 0.247681 -0.968183
vn -0.021701 0.246237 -0.968967
vn -0.986082 0.128798 0.105132
vn -0.98616 0.125247 0.10864
vn -0.202592 0.108581 0.973225
vn -0.190196 0.106072 0.975999
vn -0.986926 0.126368 -0.10004
vn -0.054968 0.091856 0.994254
vn 0.219012 0.108985 0.969616
vn 0.232457 0.111411 0.966205
vn 0.986253 0.125174 0.107874
vn 0.986181 0.12872 0.104295
vn 0.062935 0.092634 0.993709
vn 0.314216 0.101689 0.94389
vn 0.073563 0.063081 0.995294
vn 0.967176 0.19766 -0.15969
vn 0.977347 0.180547 0.110438
vn 0.987052 0.126286 -0.098896
vn 0.963947 0.23362 0.127391
vn 0.965112 0.230312 -0.124561
vn 0.337121 0.2153 -0.916513
vn -0.091254 0.076421 -0.992891
vn -0.232082 0.090569 -0.968471
vn -0.987097 0.122093 -0.103598
vn -0.243123 0.083741 -0.966374
vn 0.12051 0.189821 -0.974395
vn 0.265442 0.09425 -0.959509
vn 0.104319 0.077926 -0.991486
vn 0.277261 0.087357 -0.956815
vn 0.987222 0.122021 -0.102491
vn 0.005113 0.092122 0.995735
vn 0.005113 0.092121 0.995735
vn -0.054156 0.09404 0.994094
vn -0.089958 0.067981 -0.993623
vn 0.008191 0.064562 -0.99788
vn 0.062375 0.094816 0.993539
vn 0.103476 0.069348 -0.992211
vn -0.087433 0.787635 0.609907
vn 0.041621 0.790715 0.610767
vn 0.042881 0.718539 -0.694163
vn -0.104106 0.714598 -0.691745
vn 0.005445 0.072658 0.997342
vn 0.008614 0.125607 -0.992043
vn 0.008614 0.125609 -0.992042
vn -0.0517 0.093905 0.994238
vn -0.19022 0.107582 0.975829
vn 0.004733 0.092119 0.995737
vn 0.218299 0.11027 0.969632
vn 0.059561 0.094656 0.993727
vn 0.9867 0.124737 0.104231
vn 0.988121 0.121772 -0.093751
vn 0.262452 0.086131 -0.961093
vn 0.098829 0.069071 -0.992704
vn -0.085829 0.067749 -0.994004
vn 0.007799 0.064555 -0.997884
vn -0.229923 0.082673 -0.969691
vn -0.988022 0.121836 -0.094702
vn -0.986622 0.1248 0.104887

# Mesh 'g roche2casse_low:pCube1_roche2casse_low:pCube1' with 144 faces
g g roche2casse_low:pCube1_roche2casse_low:pCube1
usemtl roche2casse_low_initialShadingGroup
f  1/1/1 2/2/2 3/3/3
f  3/3/3 4/4/4 1/1/1
f  5/5/5 6/6/6 2/7/2
f  2/7/2 7/8/7 5/5/5
f  8/9/8 3/10/3 6/6/6
f  6/6/6 9/11/9 8/9/8
f  10/12/10 7/13/7 11/14/11
f  10/12/10 11/14/11 12/15/12
f  13/16/13 14/17/14 15/18/15
f  15/18/15 16/19/16 13/16/13
f  17/20/17 5/5/5 18/21/18
f  18/21/18 19/22/19 17/20/17
f  20/23/20 8/24/8 21/25/21
f  21/25/21 22/26/22 20/23/20
f  23/27/23 21/28/21 9/11/9
f  9/11/9 17/20/17 23/27/23
f  24/29/24 25/30/25 26/31/26
f  26/31/26 27/32/27 24/29/24
f  28/33/28 23/34/23 29/35/29
f  29/35/29 30/36/30 28/33/28
f  31/37/31 32/38/32 33/39/33
f  33/39/33 34/40/34 31/37/31
f  35/41/35 31/37/31 4/4/4
f  4/4/4 20/42/20 35/41/35
f  11/14/11 1/43/1 34/44/34
f  34/44/34 36/45/36 11/14/11
f  37/46/37 38/47/38 39/48/39
f  39/48/39 40/49/40 37/46/37
f  41/50/41 37/51/37 42/52/42
f  42/52/42 43/53/43 41/50/41
f  44/54/44 45/55/45 40/49/40
f  40/49/40 46/56/46 44/54/44
f  16/57/16 42/58/42 45/55/45
f  45/55/45 47/59/47 16/57/16
f  27/32/27 13/16/13 47/60/47
f  47/60/47 48/61/48 27/32/27
f  49/62/49 24/63/24 48/64/48
f  48/64/48 44/65/44 49/62/49
f  50/66/50 51/67/51 22/26/22
f  22/26/22 28/33/28 50/66/50
f  52/68/52 35/69/35 51/67/51
f  51/67/51 53/70/53 52/68/52
f  54/71/54 49/62/49 55/72/55
f  55/72/55 56/73/56 54/71/54
f  57/74/57 55/72/55 46/75/46
f  46/75/46 58/76/58 57/74/57
f  59/77/59 60/78/60 36/45/36
f  36/45/36 61/79/61 59/77/59
f  62/80/62 50/66/50 63/81/63
f  63/81/63 64/82/63 62/80/62
f  16/83/16 15/84/15 43/53/43
f  43/53/43 42/52/42 16/83/16
f  27/32/27 26/31/26 14/17/14
f  14/17/14 13/16/13 27/32/27
f  49/62/49 54/71/54 25/85/25
f  25/85/25 24/63/24 49/62/49
f  47/59/47 45/55/45 44/54/44
f  44/54/44 48/86/48 47/59/47
f  8/87/8 20/42/20 4/4/4
f  4/4/4 3/3/3 8/87/8
f  37/51/37 41/50/41 65/88/64
f  65/88/64 38/89/38 37/51/37
f  46/56/46 40/49/40 39/48/39
f  39/48/39 58/90/58 46/56/46
f  55/72/55 57/74/57 66/91/65
f  66/91/65 56/73/56 55/72/55
f  31/37/31 35/41/35 52/92/52
f  52/92/52 32/38/32 31/37/31
f  53/70/53 51/67/51 50/66/50
f  50/66/50 62/80/62 53/70/53
f  22/26/22 21/25/21 23/34/23
f  23/34/23 28/33/28 22/26/22
f  9/11/9 6/6/6 5/5/5
f  5/5/5 17/20/17 9/11/9
f  2/93/2 1/43/1 11/14/11
f  11/14/11 7/13/7 2/93/2
f  36/45/36 34/44/34 33/94/33
f  33/94/33 61/79/61 36/45/36
f  2/7/2 6/6/6 3/10/3
f  7/8/7 10/95/66 18/21/67
f  18/21/67 5/5/5 7/8/7
f  8/9/8 9/11/9 21/28/21
f  17/20/17 19/22/68 29/96/69
f  29/96/69 23/27/23 17/20/17
f  4/4/4 31/37/31 34/40/34
f  34/40/34 1/1/1 4/4/4
f  42/58/42 37/46/37 40/49/40
f  40/49/40 45/55/45 42/58/42
f  16/19/16 47/60/47 13/16/13
f  27/32/27 48/61/48 24/29/24
f  22/26/22 51/67/51 35/69/35
f  35/69/35 20/97/20 22/26/22
f  55/72/55 49/62/49 44/65/44
f  44/65/44 46/75/46 55/72/55
f  36/45/36 60/78/70 12/15/70
f  12/15/70 11/14/11 36/45/36
f  28/33/28 30/36/71 63/81/72
f  63/81/72 50/66/50 28/33/28
f  67/98/73 61/79/61 33/94/33
f  33/94/33 68/99/74 67/98/73
f  69/100/75 59/77/75 61/79/61
f  61/79/61 67/98/73 69/100/75
f  70/101/76 38/89/38 65/88/64
f  65/88/64 71/102/77 70/101/76
f  38/47/38 70/103/76 72/104/78
f  72/104/78 39/48/39 38/47/38
f  73/105/79 58/90/58 39/48/39
f  39/48/39 72/104/78 73/105/79
f  74/106/80 57/74/57 58/76/58
f  58/76/58 73/107/79 74/106/80
f  74/106/80 75/108/81 66/91/65
f  66/91/65 57/74/57 74/106/80
f  76/109/82 62/80/62 64/82/83
f  64/82/83 77/110/83 76/109/82
f  78/111/84 53/70/53 62/80/62
f  62/80/62 76/109/82 78/111/84
f  79/112/85 52/68/52 53/70/53
f  53/70/53 78/111/84 79/112/85
f  80/113/86 32/38/32 52/92/52
f  52/92/52 79/114/85 80/113/86
f  32/38/32 80/113/86 68/115/74
f  68/115/74 33/39/33 32/38/32
f  71/102/77 65/88/64 59/77/75
f  59/77/75 69/100/75 71/102/77
f  65/88/64 41/50/41 60/78/60
f  60/78/60 59/77/59 65/88/64
f  60/78/70 41/50/41 43/53/43
f  43/53/43 12/15/70 60/78/70
f  43/53/43 15/84/15 10/12/10
f  10/12/10 12/15/12 43/53/43
f  10/95/66 15/18/15 14/17/14
f  14/17/14 18/21/67 10/95/66
f  26/31/26 19/22/19 18/21/18
f  18/21/18 14/17/14 26/31/26
f  19/22/68 26/31/26 25/30/25
f  25/30/25 29/96/69 19/22/68
f  54/71/54 30/36/30 29/35/29
f  29/35/29 25/85/25 54/71/54
f  30/36/71 54/71/54 56/73/56
f  56/73/56 63/81/72 30/36/71
f  66/91/65 64/82/63 63/81/63
f  63/81/63 56/73/56 66/91/65
f  75/108/81 77/110/83 64/82/83
f  64/82/83 66/91/65 75/108/81

