# File produced by Open Asset Import Library (http://www.assimp.sf.net)
# (assimp v3.1.71981620)

mtllib roche4.mtl

# 104 vertex positions
v  -0.850254 4.44763 -1.12744
v  -0.850254 5.63789 1.27736
v  2.73791 5.63789 1.27736
v  2.73791 4.44763 -1.12744
v  -0.850254 5.29645 4.20418
v  -1.10034 2.78235 4.84315
v  2.98575 2.78235 4.84315
v  2.73791 5.29645 4.20418
v  -0.850254 2.38419e-07 3.92961
v  2.73791 2.38419e-07 4.11939
v  -0.892967 2.38419e-07 3.11299
v  2.90103 2.38419e-07 3.26698
v  -1.01149 2.38419e-07 1.17731
v  3.03386 2.38419e-07 1.24646
v  -1.05797 2.38419e-07 -1.08408
v  2.8823 2.38419e-07 -1.11405
v  -0.938694 2.38419e-07 -3.14658
v  2.8629 2.38419e-07 -3.26695
v  2.73791 3.46843 -3.32073
v  -0.850254 3.46843 -3.32073
v  -2.03232 3.46843 -3.32073
v  -2.1063 1.97294 -4.79877
v  -2.61433 1.6228 -4.77022
v  -2.54149 3.08225 -3.4105
v  -0.909368 1.52212 -5.15591
v  -2.19352 1.51645 -5.15944
v  -0.850254 1.97177 -4.79992
v  -2.90763 0.932575 -5.26799
v  -2.49622 0.739418 -5.64384
v  2.7965 1.52207 -5.15594
v  2.73791 1.97173 -4.79996
v  -2.21832 0.189258 -4.91962
v  -2.65157 0.253248 -4.53636
v  -0.867367 2.38419e-07 -4.42385
v  -2.16765 2.38419e-07 -4.35876
v  -0.914134 0.188872 -4.96365
v  -2.67896 0.352889 -3.22276
v  -2.24276 2.38419e-07 -3.05428
v  2.76185 2.38419e-07 -4.60339
v  2.81189 0.220715 -5.13612
v  -2.18845 2.38419e-07 2.9898
v  -2.06975 2.38419e-07 3.86511
v  -2.56218 0.360643 3.59232
v  -2.60894 0.37267 3.13595
v  -2.90763 2.98528 4.46424
v  -2.48928 2.78235 4.84315
v  -2.5388 5.12838 3.88195
v  -2.0697 5.29645 4.20418
v  4.62114 0.384104 3.39591
v  4.50745 0.360005 3.92768
v  3.97127 2.38419e-07 4.18462
v  4.21103 2.38419e-07 3.25685
v  4.38497 2.78235 4.84315
v  4.81141 2.98572 4.46342
v  3.97352 5.29645 4.20418
v  4.44259 5.12836 3.88191
v  -2.49781 5.8391 3.40247
v  -2.08795 5.97934 3.81876
v  -0.695634 6.25165 3.87507
v  -2.04317 6.13866 3.19023
v  -0.850254 5.86821 4.29618
v  -2.50429 5.25933 1.31052
v  -2.05709 5.63789 1.27736
v  3.99067 5.97948 3.81677
v  4.40159 5.83906 3.40247
v  3.96086 5.63789 1.27736
v  3.94699 6.13865 3.18898
v  4.40807 5.25933 1.31052
v  2.73791 5.8681 4.29616
v  2.58881 6.25492 3.88893
v  4.01007 1.97294 -4.79877
v  4.09729 1.51645 -5.15944
v  4.44527 3.08225 -3.4105
v  4.51811 1.6228 -4.77022
v  3.93609 3.46843 -3.32073
v  4.38411 0.739418 -5.64384
v  4.81141 0.925665 -5.28143
v  4.13901 0.243869 -5.19672
v  4.56618 0.272394 -4.84411
v  -2.81916 0.394344 -1.09793
v  -2.40508 2.38419e-07 -1.05319
v  4.06498 2.38419e-07 -4.673
v  4.18373 2.38419e-07 -3.28908
v  4.61463 0.367035 -3.40696
v  4.25209 2.38419e-07 -1.10408
v  4.67149 0.389875 -1.14461
v  3.95729 4.44763 -1.12744
v  4.42281 4.07296 -1.14497
v  -2.51903 4.07296 -1.14497
v  -2.05351 4.44763 -1.12744
v  -2.40219 2.38419e-07 1.1227
v  -2.815 0.396652 1.19511
v  4.83723 0.406651 1.30913
v  4.4298 2.38419e-07 1.26992
v  2.98575 0.739418 -5.64384
v  4.81141 3.31198 3.85424
v  -2.90763 3.31198 3.85424
v  -2.90763 2.97983 1.51017
v  4.81141 2.97983 1.51017
v  -2.90763 2.29139 -1.22834
v  4.81141 2.29139 -1.22834
v  -2.90763 1.72502 -3.72599
v  4.81141 1.72502 -3.72599
v  -1.10034 0.739418 -5.64384

# 161 UV coordinates
vt 0.258125 0.625155 0
vt 0.258214 0.751305 0
vt 0.088926 0.751162 0
vt 0.088941 0.625226 0
vt 0.662891 0.765929 0
vt 0.662891 0.644851 0
vt 0.841794 0.644851 0
vt 0.841794 0.765929 0
vt 0.662891 0.509262 0
vt 0.841794 0.509262 0
vt 0.739947 0.936978 0
vt 0.739947 0.901393 0
vt 0.92466 0.901393 0
vt 0.92466 0.936978 0
vt 0.739947 0.808524 0
vt 0.92466 0.808524 0
vt 0.776381 0.011719 0
vt 0.776381 0.120201 0
vt 0.5949 0.120201 0
vt 0.5949 0.011719 0
vt 0.776381 0.217538 0
vt 0.5949 0.217538 0
vt 0.089047 0.512276 0
vt 0.258026 0.512286 0
vt 0.123478 0.200574 0
vt 0.047226 0.13686 0
vt 0.056676 0.10927 0
vt 0.125668 0.170508 0
vt 0.260766 0.386383 0
vt 0.321157 0.386109 0
vt 0.317059 0.413462 0
vt 0.257987 0.413348 0
vt 0.037314 0.075628 0
vt 0.028616 0.115312 0
vt 0.011719 0.070554 0
vt 0.086374 0.386369 0
vt 0.089117 0.413336 0
vt 0.03466 0.028844 0
vt 0.063566 0.037294 0
vt 0.776381 0.280678 0
vt 0.839046 0.280678 0
vt 0.839046 0.308086 0
vt 0.776381 0.308086 0
vt 0.865074 0.217538 0
vt 0.865074 0.280678 0
vt 0.839046 0.217538 0
vt 0.5949 0.280678 0
vt 0.5949 0.308086 0
vt 0.67675 0.901393 0
vt 0.67675 0.936978 0
vt 0.647925 0.936978 0
vt 0.647925 0.901393 0
vt 0.492008 0.156604 0
vt 0.456637 0.033053 0
vt 0.479547 0.011719 0
vt 0.518538 0.148111 0
vt 0.469377 0.257094 0
vt 0.493954 0.27129 0
vt 0.356999 0.903279 0
vt 0.357005 0.928779 0
vt 0.333479 0.951776 0
vt 0.329727 0.902301 0
vt 0.468397 0.976732 0
vt 0.477201 0.949672 0
vt 0.59115 0.954845 0
vt 0.577866 0.929843 0
vt 0.447915 0.289293 0
vt 0.47197 0.303162 0
vt 0.249933 0.875858 0
vt 0.313587 0.845766 0
vt 0.315655 0.876708 0
vt 0.258072 0.902331 0
vt 0.348645 0.267043 0
vt 0.439833 0.31482 0
vt 0.345608 0.294572 0
vt 0.623601 0.93414 0
vt 0.610699 0.909527 0
vt 0.621834 0.808524 0
vt 0.636464 0.902961 0
vt 0.593689 0.808524 0
vt 0.089769 0.903458 0
vt 0.031293 0.877543 0
vt 0.033111 0.846456 0
vt 0.097442 0.87718 0
vt 0.029286 0.413428 0
vt 0.025199 0.386068 0
vt 0.567571 0.486633 0
vt 0.636294 0.424422 0
vt 0.646469 0.451548 0
vt 0.570141 0.516477 0
vt 0.680118 0.38201 0
vt 0.665152 0.429053 0
vt 0.655029 0.39043 0
vt 0.663633 0.34881 0
vt 0.639869 0.357915 0
vt 0.865074 0.120201 0
vt 0.839046 0.120201 0
vt 0.531287 0.308086 0
vt 0.531287 0.280678 0
vt 0.570583 0.329528 0
vt 0.638317 0.331128 0
vt 0.57339 0.356488 0
vt 0.466303 0.326288 0
vt 0.466108 0.35336 0
vt 0.464755 0.558418 0
vt 0.349514 0.61018 0
vt 0.344319 0.58304 0
vt 0.461374 0.530518 0
vt 0.231546 0.214683 0
vt 0.22863 0.242898 0
vt 0.67675 0.808524 0
vt 0.647925 0.808524 0
vt 0.353606 0.808524 0
vt 0.326287 0.808524 0
vt 0.839046 0.011719 0
vt 0.865074 0.011719 0
vt 0.350003 0.351394 0
vt 0.353908 0.324448 0
vt 0.903284 0.644851 0
vt 0.903284 0.765929 0
vt 0.841794 0.797666 0
vt 0.903284 0.797666 0
vt 0.077482 0.343003 0
vt 0.011719 0.343013 0
vt 0.988281 0.901393 0
vt 0.988281 0.936978 0
vt 0.492544 0.921541 0
vt 0.463881 0.171281 0
vt 0.031468 0.752102 0
vt 0.354967 0.156803 0
vt 0.988281 0.808524 0
vt 0.479584 0.808524 0
vt 0.031525 0.625449 0
vt 0.22646 0.12754 0
vt 0.531287 0.120201 0
vt 0.531287 0.011719 0
vt 0.336891 0.473357 0
vt 0.466227 0.444064 0
vt 0.032669 0.512334 0
vt 0.108194 0.105724 0
vt 0.531287 0.217538 0
vt 0.584004 0.422215 0
vt 0.085671 0.308875 0
vt 0.023244 0.311627 0
vt 0.127823 0.038657 0
vt 0.230075 0.037772 0
vt 0.34015 0.03481 0
vt 0.434243 0.032806 0
vt 0.903284 0.509262 0
vt 0.314778 0.625378 0
vt 0.314938 0.752048 0
vt 0.601977 0.797666 0
vt 0.601977 0.765929 0
vt 0.662891 0.797666 0
vt 0.601977 0.644851 0
vt 0.601977 0.509262 0
vt 0.322378 0.300298 0
vt 0.335409 0.34307 0
vt 0.269757 0.343014 0
vt 0.261039 0.301854 0
vt 0.313645 0.512346 0

# 96 vertex normals
vn -0 0.904379 -0.42673
vn 0.002672 0.938826 -0.34438
vn -0.002687 0.93884 -0.344343
vn -0.008603 0.196387 0.980489
vn -0.013 -0.04141 0.999058
vn -0.013009 -0.027188 0.999546
vn 0.008616 0.196573 0.980451
vn -0.021211 -0.513682 0.857718
vn -0.021393 -0.501873 0.864676
vn 0 -1 0
vn -0 0.828887 -0.559416
vn 0 0.828886 -0.559417
vn -0.169057 0.825614 -0.538314
vn -0.136844 0.682926 -0.717555
vn -0.732407 0.510611 -0.450396
vn -0.871287 0.424915 -0.245573
vn -3.6e-05 0.561712 -0.827333
vn -0.103783 0.582761 -0.805989
vn -1.9e-05 0.685249 -0.728309
vn -0.954459 -0.056883 -0.292869
vn -0.236435 -0.197215 -0.951423
vn 3.6e-05 0.561773 -0.827291
vn 1.9e-05 0.685256 -0.728302
vn -0.155886 -0.851263 -0.50105
vn -0.907919 -0.418537 -0.022572
vn -0.004025 -0.994339 -0.106179
vn -0.153906 -0.984856 -0.079819
vn -0.01227 -0.838005 -0.545525
vn -0.955696 -0.29432 -0.004517
vn -0.199701 -0.979825 -0.007879
vn -0.003991 -0.993376 -0.114838
vn -0.012166 -0.821039 -0.570742
vn -0.20407 -0.97872 0.0215
vn -0.181893 -0.540841 0.821222
vn -0.878395 -0.315313 0.359166
vn -0.979981 -0.192505 0.050793
vn -0.877213 -0.014221 0.47989
vn -0.231904 -0.080578 0.969396
vn -0.827469 0.279905 0.486774
vn -0.191235 0.276041 0.941929
vn 0.984742 -0.162429 0.062449
vn 0.853865 -0.283176 0.436722
vn 0.131395 -0.488455 0.86264
vn 0.218931 -0.975336 0.028097
vn 0.200841 -0.025342 0.979296
vn 0.86685 0.01695 0.498282
vn 0.189926 0.275978 0.942212
vn 0.826056 0.280006 0.48911
vn -0.956311 0.292297 -0.005638
vn -0.34437 0.643756 0.683364
vn -0.009119 0.998397 -0.055859
vn -0.168423 0.972088 -0.163338
vn -0.064531 0.376408 0.924204
vn -0.945422 0.308833 -0.103916
vn -0.183277 0.921021 -0.343701
vn 0.344634 0.639599 0.687125
vn 0.956322 0.292263 -0.005486
vn 0.181454 0.921337 -0.343819
vn 0.167118 0.972211 -0.163946
vn 0.94543 0.308812 -0.103916
vn 0.064018 0.3759 0.924446
vn 0.008872 0.99845 -0.054936
vn 0.135606 0.682994 -0.717726
vn 0.102597 0.582582 -0.806271
vn 0.871276 0.424935 -0.245579
vn 0.732123 0.510704 -0.450752
vn 0.167483 0.825751 -0.538595
vn 0.215406 -0.00763 -0.976495
vn 0.961639 -0.003388 -0.274299
vn 0.123413 -0.783252 -0.609332
vn 0.901347 -0.430487 -0.047484
vn -0.977964 -0.208677 -0.006394
vn -0.221755 -0.975085 -0.005918
vn 0.155078 -0.982031 -0.107548
vn 0.209704 -0.977757 -0.003906
vn 0.951448 -0.307744 0.006434
vn 0.212586 -0.977091 -0.009969
vn 0.977104 -0.211724 -0.021015
vn 0.200095 0.886347 -0.417553
vn 0.928514 0.344743 -0.137891
vn -0.928514 0.344743 -0.137892
vn -0.201935 0.886009 -0.417387
vn -0.225675 -0.974149 0.010242
vn -0.983383 -0.178874 0.031028
vn 0.98789 -0.154806 0.010425
vn 0.237161 -0.971469 0.001534
vn -0.006617 -0.049501 -0.998752
vn 0.997388 0.065851 0.029674
vn -0.998396 0.051616 0.023257
vn -0.998327 0.057324 -0.007567
vn 0.997265 0.072361 -0.015047
vn -0.996944 0.070054 -0.034576
vn 0.996388 0.073343 -0.042806
vn -0.995234 0.067599 -0.070285
vn 0.995716 0.06587 -0.064886
vn -0.006998 -0.107571 -0.994173

# Mesh 'g pCube1_pCube1' with 204 faces
g g pCube1_pCube1
usemtl initialShadingGroup
f  1/1/1 2/2/2 3/3/3
f  3/3/3 4/4/1 1/1/1
f  5/5/4 6/6/5 7/7/6
f  7/7/6 8/8/7 5/5/4
f  6/6/5 9/9/8 10/10/9
f  10/10/9 7/7/6 6/6/5
f  9/11/8 11/12/10 12/13/10
f  12/13/10 10/14/9 9/11/8
f  11/12/10 13/15/10 14/16/10
f  14/16/10 12/13/10 11/12/10
f  13/17/10 15/18/10 16/19/10
f  16/19/10 14/20/10 13/17/10
f  15/18/10 17/21/10 18/22/10
f  18/22/10 16/19/10 15/18/10
f  19/23/11 20/24/12 1/1/1
f  1/1/1 4/4/1 19/23/11
f  21/25/13 22/26/14 23/27/15
f  23/27/15 24/28/16 21/25/13
f  25/29/17 26/30/18 22/31/14
f  22/31/14 27/32/19 25/29/17
f  28/33/20 23/27/15 26/34/18
f  26/34/18 29/35/21 28/33/20
f  30/36/22 25/29/17 27/32/19
f  27/32/19 31/37/23 30/36/22
f  29/35/21 32/38/24 33/39/25
f  33/39/25 28/33/20 29/35/21
f  34/40/26 35/41/27 32/42/24
f  32/42/24 36/43/28 34/40/26
f  37/44/29 33/45/25 35/41/27
f  35/41/27 38/46/30 37/44/29
f  39/47/31 34/40/26 36/43/28
f  36/43/28 40/48/32 39/47/31
f  41/49/33 42/50/34 43/51/35
f  43/51/35 44/52/36 41/49/33
f  45/53/37 43/54/35 42/55/34
f  42/55/34 46/56/38 45/53/37
f  47/57/39 45/53/37 46/56/38
f  46/56/38 48/58/40 47/57/39
f  49/59/41 50/60/42 51/61/43
f  51/61/43 52/62/44 49/59/41
f  53/63/45 51/61/43 50/60/42
f  50/60/42 54/64/46 53/63/45
f  55/65/47 53/63/45 54/64/46
f  54/64/46 56/66/48 55/65/47
f  57/67/49 47/57/39 48/58/40
f  48/58/40 58/68/50 57/67/49
f  59/69/51 60/70/52 58/71/50
f  58/71/50 61/72/53 59/69/51
f  62/73/54 57/67/49 60/74/52
f  60/74/52 63/75/55 62/73/54
f  64/76/56 55/65/47 56/66/48
f  56/66/48 65/77/57 64/76/56
f  66/78/58 67/79/59 65/77/57
f  65/77/57 68/80/60 66/78/58
f  69/81/61 64/82/56 67/83/59
f  67/83/59 70/84/62 69/81/61
f  31/37/23 71/85/63 72/86/64
f  72/86/64 30/36/22 31/37/23
f  73/87/65 74/88/66 71/89/63
f  71/89/63 75/90/67 73/87/65
f  76/91/68 72/92/64 74/88/66
f  74/88/66 77/93/69 76/91/68
f  78/94/70 76/91/68 77/93/69
f  77/93/69 79/95/71 78/94/70
f  80/96/72 37/44/29 38/46/30
f  38/46/30 81/97/73 80/96/72
f  40/48/32 78/98/70 82/99/74
f  82/99/74 39/47/31 40/48/32
f  83/100/75 82/101/74 79/95/71
f  79/95/71 84/102/76 83/100/75
f  85/103/77 83/100/75 84/102/76
f  84/102/76 86/104/78 85/103/77
f  87/105/79 66/106/58 68/107/60
f  68/107/60 88/108/80 87/105/79
f  89/109/81 62/73/54 63/75/55
f  63/75/55 90/110/82 89/109/81
f  61/72/53 69/81/61 70/84/62
f  70/84/62 59/69/51 61/72/53
f  91/111/83 41/49/33 44/52/36
f  44/52/36 92/112/84 91/111/83
f  93/113/85 49/59/41 52/62/44
f  52/62/44 94/114/86 93/113/85
f  75/90/67 87/105/79 88/108/80
f  88/108/80 73/87/65 75/90/67
f  24/28/16 89/109/81 90/110/82
f  90/110/82 21/25/13 24/28/16
f  81/97/73 91/115/83 92/116/84
f  92/116/84 80/96/72 81/97/73
f  86/104/78 93/117/85 94/118/86
f  94/118/86 85/103/77 86/104/78
f  8/8/7 7/7/6 53/119/45
f  53/119/45 55/120/47 8/8/7
f  69/121/61 8/8/7 55/120/47
f  55/120/47 64/122/56 69/121/61
f  95/123/87 30/36/22 72/86/64
f  72/86/64 76/124/68 95/123/87
f  10/14/9 12/13/10 52/125/44
f  52/125/44 51/126/43 10/14/9
f  56/66/48 54/64/46 96/127/88
f  96/127/88 65/77/57 56/66/48
f  57/67/49 97/128/89 45/53/37
f  45/53/37 47/57/39 57/67/49
f  3/3/3 70/84/62 67/83/59
f  67/83/59 66/129/58 3/3/3
f  62/73/54 98/130/90 97/128/89
f  97/128/89 57/67/49 62/73/54
f  12/13/10 14/16/10 94/131/86
f  94/131/86 52/125/44 12/13/10
f  68/80/60 65/77/57 96/127/88
f  96/127/88 99/132/91 68/80/60
f  4/4/1 3/3/3 66/129/58
f  66/129/58 87/133/79 4/4/1
f  89/109/81 100/134/92 98/130/90
f  98/130/90 62/73/54 89/109/81
f  14/20/10 16/19/10 85/135/77
f  85/135/77 94/136/86 14/20/10
f  88/108/80 68/107/60 99/137/91
f  99/137/91 101/138/93 88/108/80
f  75/139/67 19/23/11 4/4/1
f  4/4/1 87/133/79 75/139/67
f  24/28/16 102/140/94 100/134/92
f  100/134/92 89/109/81 24/28/16
f  16/19/10 18/22/10 83/141/75
f  83/141/75 85/135/77 16/19/10
f  73/87/65 88/108/80 101/138/93
f  101/138/93 103/142/95 73/87/65
f  31/37/23 19/23/11 75/139/67
f  75/139/67 71/85/63 31/37/23
f  23/27/15 28/33/20 102/140/94
f  102/140/94 24/28/16 23/27/15
f  18/22/10 39/47/31 82/99/74
f  82/99/74 83/141/75 18/22/10
f  74/88/66 73/87/65 103/142/95
f  103/142/95 77/93/69 74/88/66
f  40/143/32 95/123/87 76/124/68
f  76/124/68 78/144/70 40/143/32
f  28/33/20 33/39/25 37/145/29
f  37/145/29 102/140/94 28/33/20
f  102/140/94 37/145/29 80/146/72
f  80/146/72 100/134/92 102/140/94
f  100/134/92 80/146/72 92/147/84
f  92/147/84 98/130/90 100/134/92
f  98/130/90 92/147/84 44/148/36
f  44/148/36 97/128/89 98/130/90
f  97/128/89 44/148/36 43/54/35
f  43/54/35 45/53/37 97/128/89
f  7/7/6 10/10/9 51/149/43
f  51/149/43 53/119/45 7/7/6
f  54/64/46 50/60/42 49/59/41
f  49/59/41 96/127/88 54/64/46
f  93/113/85 99/132/91 96/127/88
f  96/127/88 49/59/41 93/113/85
f  86/104/78 101/138/93 99/137/91
f  99/137/91 93/117/85 86/104/78
f  84/102/76 103/142/95 101/138/93
f  101/138/93 86/104/78 84/102/76
f  79/95/71 77/93/69 103/142/95
f  103/142/95 84/102/76 79/95/71
f  90/150/82 63/151/55 2/2/2
f  2/2/2 1/1/1 90/150/82
f  63/151/55 60/70/52 59/69/51
f  59/69/51 2/2/2 63/151/55
f  58/152/50 48/153/40 5/5/4
f  5/5/4 61/154/53 58/152/50
f  48/153/40 46/155/38 6/6/5
f  6/6/5 5/5/4 48/153/40
f  46/155/38 42/156/34 9/9/8
f  9/9/8 6/6/5 46/155/38
f  42/50/34 41/49/33 11/12/10
f  11/12/10 9/11/8 42/50/34
f  41/49/33 91/111/83 13/15/10
f  13/15/10 11/12/10 41/49/33
f  91/115/83 81/97/73 15/18/10
f  15/18/10 13/17/10 91/115/83
f  81/97/73 38/46/30 17/21/10
f  17/21/10 15/18/10 81/97/73
f  38/46/30 35/41/27 34/40/26
f  34/40/26 17/21/10 38/46/30
f  32/157/24 29/158/21 104/159/96
f  104/159/96 36/160/28 32/157/24
f  29/158/21 26/30/18 25/29/17
f  25/29/17 104/159/96 29/158/21
f  22/31/14 21/161/13 20/24/12
f  20/24/12 27/32/19 22/31/14
f  21/161/13 90/150/82 1/1/1
f  1/1/1 20/24/12 21/161/13
f  2/2/2 59/69/51 70/84/62
f  70/84/62 3/3/3 2/2/2
f  61/154/53 5/5/4 8/8/7
f  8/8/7 69/121/61 61/154/53
f  17/21/10 34/40/26 39/47/31
f  39/47/31 18/22/10 17/21/10
f  36/160/28 104/159/96 95/123/87
f  95/123/87 40/143/32 36/160/28
f  104/159/96 25/29/17 30/36/22
f  30/36/22 95/123/87 104/159/96
f  27/32/19 20/24/12 19/23/11
f  19/23/11 31/37/23 27/32/19
f  22/26/14 26/34/18 23/27/15
f  32/42/24 35/41/27 33/45/25
f  60/74/52 57/67/49 58/68/50
f  67/79/59 64/76/56 65/77/57
f  71/89/63 74/88/66 72/92/64
f  78/94/70 79/95/71 82/101/74

